<svg id="OBJECTS" xmlns="http://www.w3.org/2000/svg" viewBox="0 0 129.53 129.53"><defs><style>.cls-1{fill:#b9c4e1;}.cls-2{fill:#fff;}</style></defs><title>blankcover</title><circle class="cls-1" cx="110.72" cy="100.93" r="64.76" transform="translate(-84.9 71.68) rotate(-45)"/><ellipse class="cls-2" cx="64.76" cy="54.16" rx="25.19" ry="32.57"/><path class="cls-2" d="M110.72,125.31c-21.08,0-39.62,6.44-50.46,16.2a64.73,64.73,0,0,0,100.91,0C150.34,131.75,131.79,125.31,110.72,125.31Z" transform="translate(-45.95 -36.17)"/><rect class="cls-2" x="52.33" y="64.76" width="24.88" height="41.13" rx="9.62"/><path class="cls-2" d="M89,91.83c1.47,4.23.89,8.27-1.3,9s-5.14-2-6.61-6.27-.88-8.26,1.3-9S87.54,87.61,89,91.83Z" transform="translate(-45.95 -36.17)"/><ellipse class="cls-2" cx="136.39" cy="93.21" rx="8.1" ry="4.19" transform="translate(-42.36 155.31) rotate(-70.85)"/><path class="cls-2" d="M88.67,91.7c-3.27-6-6.64-12.28-6.47-19.07s5.34-14,12.13-13.72a19.11,19.11,0,0,0,3.54.14c2.35-.33,4.09-2.25,6-3.67a15.94,15.94,0,0,1,15.23-1.92c3.06,1.24,5.66,3.43,8.64,4.84a19.44,19.44,0,0,0,17.76-.71,10.14,10.14,0,0,1-5.21,4.62,9.62,9.62,0,0,0,6.29-.18,10.74,10.74,0,0,1-5.52,4.81l5.17.36a13,13,0,0,1-5.95,4.62l4.05.13a9.51,9.51,0,0,1-6.67,6.11l2.61,0-8.56,12.36a11,11,0,0,1-2.87,3.16,10.26,10.26,0,0,1-3.34,1.19,83.74,83.74,0,0,1-25.84,1.69c-3-.27-6-.76-8.39-2.57s-3.6-5.35-2-7.84" transform="translate(-45.95 -36.17)"/><path class="cls-2" d="M94.48,131.46a72.8,72.8,0,0,1,1.27-10.18c1.69,1.94,4.56,2.18,7.12,2.28l11.65.48c.45,2.64.76,5.76-1.15,7.64a7.33,7.33,0,0,1-3.31,1.64,30.85,30.85,0,0,1-8,1.13c-3.22,0-7.06-.95-8.09-4l1-.86" transform="translate(-45.95 -36.17)"/><path class="cls-2" d="M127,131.46a74.32,74.32,0,0,0-1.27-10.18c-1.69,1.94-4.56,2.18-7.13,2.28l-11.64.48c-.45,2.64-.77,5.76,1.15,7.64a7.28,7.28,0,0,0,3.31,1.64,30.78,30.78,0,0,0,8,1.13c3.22,0,7.06-.95,8.1-4l-1-.86" transform="translate(-45.95 -36.17)"/></svg>