<svg id="Layer_1" data-name="Layer 1" xmlns="http://www.w3.org/2000/svg" viewBox="0 0 819.52 312.09"><defs><style>.cls-1{fill:#ececec;}.cls-2{fill:#f0f0f0;}.cls-3{fill:#f5f5f5;}.cls-4{fill:#1a2e35;}.cls-11,.cls-5{opacity:0.7;}.cls-10,.cls-11,.cls-14,.cls-16,.cls-18,.cls-19,.cls-6,.cls-9{fill:#fff;}.cls-6,.cls-7{opacity:0.6;}.cls-8{fill:#007cff;}.cls-9{opacity:0.5;}.cls-10{opacity:0.8;}.cls-12,.cls-17{opacity:0.1;}.cls-13,.cls-14,.cls-15,.cls-21{opacity:0.2;}.cls-16,.cls-23{opacity:0.3;}.cls-19{opacity:0.4;}.cls-20{fill:#ffb570;}.cls-21{isolation:isolate;}.cls-22{fill:#ff8935;}</style></defs><title>cover</title><rect class="cls-1" x="466.56" y="246.25" width="16.83" height="0.13"/><rect class="cls-1" x="418.66" y="247.63" width="4.42" height="0.13"/><rect class="cls-1" x="456.3" y="241.53" width="9.75" height="0.13"/><rect class="cls-1" x="281.42" y="242.38" width="21.95" height="0.13"/><rect class="cls-1" x="307.89" y="242.38" width="3.22" height="0.13"/><rect class="cls-1" x="321.57" y="244.53" width="47.6" height="0.13"/><path class="cls-1" d="M375.19,215.34H277.06a2.9,2.9,0,0,1-2.9-2.9V74.5a2.9,2.9,0,0,1,2.9-2.9h98.13a2.9,2.9,0,0,1,2.9,2.9V212.44A2.9,2.9,0,0,1,375.19,215.34ZM277.06,71.73a2.77,2.77,0,0,0-2.77,2.77V212.44a2.77,2.77,0,0,0,2.77,2.77h98.13a2.77,2.77,0,0,0,2.77-2.77V74.5a2.77,2.77,0,0,0-2.77-2.77Z" transform="translate(0.01 0.06)"/><path class="cls-1" d="M485.11,215.34H387a2.9,2.9,0,0,1-2.9-2.9V74.5a2.9,2.9,0,0,1,2.9-2.9h98.13a2.9,2.9,0,0,1,2.9,2.9V212.44A2.9,2.9,0,0,1,485.11,215.34ZM387,71.73a2.77,2.77,0,0,0-2.77,2.77V212.44a2.77,2.77,0,0,0,2.77,2.77h98.13a2.77,2.77,0,0,0,2.77-2.77V74.5a2.77,2.77,0,0,0-2.77-2.77Z" transform="translate(0.01 0.06)"/><rect class="cls-1" x="254.76" y="238.07" width="254.09" height="0.13"/><circle class="cls-2" cx="324.98" cy="109.33" r="18.69"/><path class="cls-3" d="M353.33,100.42C357,90.63,361,97.67,361,97.67a12.7,12.7,0,0,1,9.23-10.6c4.73-1.38,6.06.54,6.31,2.52a13.18,13.18,0,0,1,4-1.91c8.54-2.49,6,8.66,6,8.66s8.4-5.78,9.28.06-2.26,5.51-4.6,6a45.2,45.2,0,0,1-6.27.12,12.34,12.34,0,0,1-10.64.48l-.63-.26s-.7.1-1.69.21a12.33,12.33,0,0,1-8-.56l-.63-.26S351.17,106.17,353.33,100.42Z" transform="translate(0.01 0.06)"/><path class="cls-3" d="M428.48,108.44c2.75-7.3,5.73-2,5.73-2a9.47,9.47,0,0,1,6.87-7.9c3.53-1,4.52.4,4.71,1.87a10.32,10.32,0,0,1,3-1.42c6.37-1.85,4.48,6.46,4.48,6.46s6.27-4.31,6.92,0-1.68,4.1-3.42,4.46a34,34,0,0,1-4.68.09,9.19,9.19,0,0,1-7.93.35l-.47-.19s-.52.08-1.26.15a9.18,9.18,0,0,1-6-.41l-.47-.2S426.87,112.72,428.48,108.44Z" transform="translate(0.01 0.06)"/><path class="cls-3" d="M282.31,140.6c2.74-7.3,5.72-2,5.72-2a9.47,9.47,0,0,1,6.87-7.9c3.53-1,4.52.4,4.71,1.88a10,10,0,0,1,3-1.43c6.36-1.85,4.48,6.46,4.48,6.46s6.26-4.31,6.91,0-1.68,4.1-3.42,4.46a34,34,0,0,1-4.68.09,9.23,9.23,0,0,1-7.93.36l-.46-.2s-.53.08-1.27.16a9.19,9.19,0,0,1-6-.42l-.47-.2S280.7,144.88,282.31,140.6Z" transform="translate(0.01 0.06)"/><path class="cls-1" d="M477.82,177.56a37,37,0,0,1-6.2-.52c-4-.91-4.84.48-8.32.52s-5.7-1-8.07-1-4.49,1-6.15,1-4.09-1-5.9-1-4.23,1-6.38,1-6.58-.61-8.8-.61-3.94.58-5.7.58a23.1,23.1,0,0,1-4.24-.58s1.58,1.6,7.57.92,7.68,1.72,12.06.81c6.7-1.39,10.25.77,14.51-.3,5-1.25,9.23,1.17,13.37,0S475.4,179.18,477.82,177.56Z" transform="translate(0.01 0.06)"/><path class="cls-1" d="M362.36,182.91a38.26,38.26,0,0,1-6.14-.51c-3.94-.9-4.79.47-8.23.51s-5.64-1-8-1-4.44,1-6.09,1-4-1-5.84-1-4.18,1-6.31,1-6.51-.6-8.71-.6-3.89.57-5.64.57a23.09,23.09,0,0,1-4.19-.57s1.56,1.58,7.49.91,7.6,1.69,11.94.8c6.62-1.38,10.14.76,14.36-.3,4.92-1.24,9.13,1.15,13.22,0S360,184.51,362.36,182.91Z" transform="translate(0.01 0.06)"/><path class="cls-2" d="M345.36,189.83a37.06,37.06,0,0,1-6.14-.51c-3.94-.89-4.79.48-8.23.51s-5.64-1-8-1-4.44,1-6.08,1-4.05-1-5.84-1-4.19,1-6.31,1-6.52-.6-8.71-.6-3.9.56-5.65.56a23.47,23.47,0,0,1-4.19-.56s1.57,1.58,7.49.9,7.6,1.7,11.94.8c6.62-1.37,10.14.77,14.36-.29,4.92-1.24,9.13,1.15,13.23,0S343,191.44,345.36,189.83Z" transform="translate(0.01 0.06)"/><path class="cls-2" d="M441.41,190.68a53.72,53.72,0,0,1-9-.74c-5.76-1.31-7,.69-12,.74s-8.22-1.4-11.65-1.4-6.47,1.46-8.88,1.46-5.89-1.46-8.51-1.46-6.11,1.46-9.2,1.46-9.5-.88-12.71-.88-5.68.82-8.22.82a34.07,34.07,0,0,1-6.12-.82s2.28,2.3,10.92,1.32,11.08,2.47,17.41,1.16c9.67-2,14.8,1.12,20.95-.43,7.17-1.8,13.32,1.69,19.29,0S437.92,193,441.41,190.68Z" transform="translate(0.01 0.06)"/><path class="cls-1" d="M468,183.82a37.81,37.81,0,0,1-6.14-.5c-3.94-.9-4.79.47-8.23.5s-5.64-.95-8-.95-4.44,1-6.08,1-4-1-5.84-1-4.19,1-6.31,1-6.52-.6-8.71-.6-3.9.56-5.65.56a23.47,23.47,0,0,1-4.19-.56s1.56,1.58,7.49.9,7.6,1.7,11.94.8c6.62-1.37,10.14.77,14.36-.29,4.92-1.24,9.13,1.15,13.23,0S465.58,185.43,468,183.82Z" transform="translate(0.01 0.06)"/><path class="cls-1" d="M415.09,177.66a41.23,41.23,0,0,1-6.8-.56c-4.38-1-5.31.52-9.13.56s-6.24-1.06-8.84-1.06-4.92,1.11-6.75,1.11-4.48-1.11-6.47-1.11-4.63,1.11-7,1.11-7.21-.67-9.65-.67-4.31.62-6.25.62a26,26,0,0,1-4.64-.62s1.73,1.75,8.29,1,8.42,1.88,13.23.89c7.34-1.52,11.24.84,15.91-.33,5.45-1.37,10.12,1.28,14.65,0S412.43,179.44,415.09,177.66Z" transform="translate(0.01 0.06)"/><path class="cls-1" d="M346.85,177.66a41.31,41.31,0,0,1-6.8-.56c-4.37-1-5.3.52-9.12.56s-6.25-1.06-8.85-1.06-4.92,1.11-6.74,1.11-4.48-1.11-6.47-1.11-4.64,1.11-7,1.11-7.22-.67-9.65-.67-4.31.62-6.25.62a26,26,0,0,1-4.64-.62s1.73,1.75,8.29,1,8.42,1.88,13.23.89c7.34-1.52,11.24.84,15.91-.33,5.45-1.37,10.11,1.28,14.65,0S344.2,179.44,346.85,177.66Z" transform="translate(0.01 0.06)"/><ellipse id="_Path_" data-name="&lt;Path&gt;" class="cls-3" cx="379.35" cy="253.31" rx="98.53" ry="5.75"/><path class="cls-4" d="M425.72,236.71s2,3.13,3.68,3.32c0,0-1.08-1.25-1.08-1.73s-.93-1.74-.93-1.74Z" transform="translate(0.01 0.06)"/><g class="cls-5"><path d="M425.72,236.71s2,3.13,3.68,3.32c0,0-1.08-1.25-1.08-1.73s-.93-1.74-.93-1.74Z" transform="translate(0.01 0.06)"/></g><path class="cls-4" d="M416.21,235.19c.06-.49.1-.44,1.8-.84s1.76-2.23,3.11-5.29,5.23-4.81,8.83-5.38,4.62,0,4.52,1.6a53.2,53.2,0,0,0,.3,5.41l.62-.16s1.64-2,2.75-2,.69,2.82.34,3.76.74,2.73-.27,2.72-2.85-2.23-2.85-2.23l-.67.06s1.58,5.62-.23,5.88-6.07-1.26-7-1.37-4.49.27-5.63-.58c0,0-2.38-.79-3-1.12C418.8,235.62,416.1,236.05,416.21,235.19Z" transform="translate(0.01 0.06)"/><path class="cls-4" d="M424.15,236.86s1.31,2.71,2.62,3.31,1.57,1.11,1.57,1.11-.94-3.62-1.81-4.64Z" transform="translate(0.01 0.06)"/><path class="cls-6" d="M421.12,229.06c-.19.43-.35.83-.49,1.21-.29,1.5-.7,5.15.3,5.06a21.69,21.69,0,0,1,.84-7.38A6.2,6.2,0,0,0,421.12,229.06Z" transform="translate(0.01 0.06)"/><path class="cls-6" d="M422.77,226.82c-.44,1.68-1.06,4.81-.33,7.12,1,3.29,1.69,2.63,1.69,2.63s-1.59-6.46-.35-10.55A9.86,9.86,0,0,0,422.77,226.82Z" transform="translate(0.01 0.06)"/><path class="cls-6" d="M429.71,237.16a6.74,6.74,0,0,1-.92-3.18c-.08-1.92-1.61-7-1.51-8,.05-.56.13-1.21.18-1.68a14.07,14.07,0,0,0-1.81.69,11.9,11.9,0,0,0,.22,1.9c.28,1.5,1.8,9.34,2.35,10A1.37,1.37,0,0,0,429.71,237.16Z" transform="translate(0.01 0.06)"/><path class="cls-4" d="M420.16,233.54c0,.31.23.54.43.51s.33-.29.29-.59-.22-.54-.43-.51S420.12,233.24,420.16,233.54Z" transform="translate(0.01 0.06)"/><path class="cls-4" d="M419.6,232.78a.15.15,0,0,0,.17,0,1.71,1.71,0,0,1,1.37-.15.16.16,0,0,0,.19-.09.16.16,0,0,0-.1-.19,2.07,2.07,0,0,0-1.63.2.14.14,0,0,0,0,.2Z" transform="translate(0.01 0.06)"/><g class="cls-7"><path d="M420.16,233.54c0,.31.23.54.43.51s.33-.29.29-.59-.22-.54-.43-.51S420.12,233.24,420.16,233.54Z" transform="translate(0.01 0.06)"/><path d="M419.6,232.78a.15.15,0,0,0,.17,0,1.71,1.71,0,0,1,1.37-.15.16.16,0,0,0,.19-.09.16.16,0,0,0-.1-.19,2.07,2.07,0,0,0-1.63.2.14.14,0,0,0,0,.2Z" transform="translate(0.01 0.06)"/></g><path class="cls-6" d="M430.4,228a17.56,17.56,0,0,1,1.62,8.16,2.85,2.85,0,0,0,.69,2.47,6.06,6.06,0,0,0,1.75.09c1.81-.26.23-5.88.23-5.88s.65-.59.08-2.12a53.2,53.2,0,0,1-.3-5.41c.1-1.52-.89-2.15-4.34-1.63A5.12,5.12,0,0,0,430.4,228Zm.61-2.68a1.14,1.14,0,1,1-.49,1.37A1,1,0,0,1,431,225.29Z" transform="translate(0.01 0.06)"/><path class="cls-4" d="M351.41,250.56c0-.24-.05-.22-.89-.41s-.88-1.11-1.55-2.63-2.6-2.39-4.39-2.68-2.3,0-2.25.8a24.67,24.67,0,0,1-.15,2.68l-.31-.07s-.81-1-1.36-1-.35,1.4-.17,1.87-.37,1.35.13,1.35,1.42-1.11,1.42-1.11l.33,0s-.78,2.8.11,2.93,3-.63,3.49-.69,2.23.14,2.79-.29c0,0,1.19-.39,1.51-.55C350.12,250.78,351.46,251,351.41,250.56Z" transform="translate(0.01 0.06)"/><path class="cls-8" d="M349,247.52q.13.31.24.6c.15.74.35,2.56-.15,2.51a10.88,10.88,0,0,0-.41-3.67A3.86,3.86,0,0,1,349,247.52Z" transform="translate(0.01 0.06)"/><path class="cls-8" d="M348.15,246.4a7.27,7.27,0,0,1,.16,3.54c-.51,1.64-.84,1.31-.84,1.31s.79-3.21.18-5.25C347.82,246.13,348,246.26,348.15,246.4Z" transform="translate(0.01 0.06)"/><path class="cls-8" d="M344.7,251.55a3.4,3.4,0,0,0,.46-1.59c0-1,.8-3.48.75-4,0-.28-.07-.6-.09-.84.3.1.61.22.9.35a6.58,6.58,0,0,1-.11.94,39.11,39.11,0,0,1-1.17,5A.69.69,0,0,1,344.7,251.55Z" transform="translate(0.01 0.06)"/><path class="cls-8" d="M344.49,244.83c-1.72-.26-2.21,0-2.16.81a24.67,24.67,0,0,1-.15,2.68c-.28.77,0,1.06,0,1.06s-.78,2.8.11,2.93a3.5,3.5,0,0,0,.88-.05,1.45,1.45,0,0,0,.34-1.23,8.71,8.71,0,0,1,.81-4.06A2.55,2.55,0,0,0,344.49,244.83Zm-.19,1.49a.52.52,0,0,1-.63.37.52.52,0,0,1-.25-.68.47.47,0,1,1,.88.31Z" transform="translate(0.01 0.06)"/><path class="cls-4" d="M346.68,251.32s-1,1.56-1.83,1.65c0,0,.54-.62.54-.86a2.75,2.75,0,0,1,.46-.86Z" transform="translate(0.01 0.06)"/><g class="cls-5"><path d="M346.68,251.32s-1,1.56-1.83,1.65c0,0,.54-.62.54-.86a2.75,2.75,0,0,1,.46-.86Z" transform="translate(0.01 0.06)"/></g><path class="cls-4" d="M347.46,251.39s-.65,1.35-1.3,1.65-.78.55-.78.55a9.2,9.2,0,0,1,.9-2.31Z" transform="translate(0.01 0.06)"/><path class="cls-4" d="M349.45,249.75c0,.15-.12.26-.22.25s-.16-.15-.14-.3.11-.26.21-.25S349.46,249.59,349.45,249.75Z" transform="translate(0.01 0.06)"/><path class="cls-4" d="M349.72,249.37a.08.08,0,0,1-.08,0,.86.86,0,0,0-.68-.07.07.07,0,0,1-.09,0,.07.07,0,0,1,0-.09,1,1,0,0,1,.82.1.08.08,0,0,1,0,.1Z" transform="translate(0.01 0.06)"/><g class="cls-7"><path d="M349.45,249.75c0,.15-.12.26-.22.25s-.16-.15-.14-.3.11-.26.21-.25S349.46,249.59,349.45,249.75Z" transform="translate(0.01 0.06)"/><path d="M349.72,249.37a.08.08,0,0,1-.08,0,.86.86,0,0,0-.68-.07.07.07,0,0,1-.09,0,.07.07,0,0,1,0-.09,1,1,0,0,1,.82.1.08.08,0,0,1,0,.1Z" transform="translate(0.01 0.06)"/></g><path class="cls-8" d="M370.85,240.1c.62-1.06.13-3.67,4.76-5.13,3.61-1.44,9-.5,10.29.44s-1.29,3.26-1.29,3.26l2.22-1.71a.83.83,0,0,1,1.3.39,5.09,5.09,0,0,1-.32,4.15.84.84,0,0,1-1.29.24l-1.79-1.56s1.73,1.58,1.1,2.6-2,2.6-6.5,2.6a22.74,22.74,0,0,1-8.59-1.75s-2.25-.82-2.09-1.58S370.23,241.17,370.85,240.1Z" transform="translate(0.01 0.06)"/><path class="cls-9" d="M384.73,240.18s1.73,1.58,1.1,2.6-2,2.6-6.5,2.6C383.94,245.33,384.73,240.18,384.73,240.18Z" transform="translate(0.01 0.06)"/><path class="cls-9" d="M385.93,235.39c.64.45.36,1.24-.11,1.92a9.2,9.2,0,0,0-2.89-2.88A8,8,0,0,1,385.93,235.39Z" transform="translate(0.01 0.06)"/><path class="cls-10" d="M387.72,236.84a.81.81,0,0,1,.44.48,5.05,5.05,0,0,1-.32,4.15.85.85,0,0,1-.59.44A10.87,10.87,0,0,0,387.72,236.84Z" transform="translate(0.01 0.06)"/><path class="cls-10" d="M384,242.4c-.26-.91-.82-2.76-1.45-4.32s-2.83-3.1-4-3.8a15.63,15.63,0,0,1,2.16-.06,16.8,16.8,0,0,1,3.27,2.61,13.65,13.65,0,0,1,.75,3.48A8.24,8.24,0,0,1,384,242.4Z" transform="translate(0.01 0.06)"/><path class="cls-10" d="M378.62,245.34a19.81,19.81,0,0,1-3.43-.4,4.1,4.1,0,0,0,.69-1.71c.18-1.29.26-3.31-.34-3.91a8.89,8.89,0,0,1-1.6-3.68,10.81,10.81,0,0,1,1.7-.7,10.36,10.36,0,0,1,1.3-.4,2.41,2.41,0,0,0,.14,1.45c.4.83,1.7,3.42,1.54,4.28a7.17,7.17,0,0,0,0,2.77A9.31,9.31,0,0,1,378.62,245.34Z" transform="translate(0.01 0.06)"/><path class="cls-10" d="M370.88,240.08c.37-.64.35-1.82,1.24-3a5.16,5.16,0,0,1,.61,1.7c0,.64-.89,1.6-.77,2.07a12.74,12.74,0,0,1,0,3.21c-.77-.27-1.22-.47-1.23-.47a9.06,9.06,0,0,0-.14-3.19A2,2,0,0,0,370.88,240.08Z" transform="translate(0.01 0.06)"/><path class="cls-4" d="M372.58,240.2c0,.3-.16.55-.36.55s-.36-.24-.36-.54.15-.55.35-.55S372.57,239.9,372.58,240.2Z" transform="translate(0.01 0.06)"/><path class="cls-4" d="M373,239.38a.14.14,0,0,1-.17,0,1.69,1.69,0,0,0-1.35,0,.13.13,0,0,1-.19-.07.15.15,0,0,1,.07-.19,2,2,0,0,1,1.61,0,.15.15,0,0,1,.06.19Z" transform="translate(0.01 0.06)"/><path class="cls-8" d="M314.53,229.25c.39-.68.08-2.33,3-3.26a9.14,9.14,0,0,1,6.53.28c.84.6-.81,2.07-.81,2.07l1.4-1.09a.53.53,0,0,1,.83.25,3.21,3.21,0,0,1-.21,2.63.52.52,0,0,1-.81.16l-1.14-1s1.1,1,.7,1.66-1.3,1.65-4.13,1.65a14.44,14.44,0,0,1-5.45-1.11s-1.43-.52-1.33-1S314.14,229.92,314.53,229.25Z" transform="translate(0.01 0.06)"/><path class="cls-9" d="M323.34,229.29s1.1,1,.7,1.66-1.3,1.65-4.13,1.65C322.84,232.56,323.34,229.29,323.34,229.29Z" transform="translate(0.01 0.06)"/><path class="cls-9" d="M324.1,226.25c.41.29.23.79-.07,1.23a5.81,5.81,0,0,0-1.84-1.83A5.13,5.13,0,0,1,324.1,226.25Z" transform="translate(0.01 0.06)"/><path class="cls-10" d="M325.24,227.17a.57.57,0,0,1,.28.31,3.26,3.26,0,0,1-.2,2.64.57.57,0,0,1-.38.27A6.94,6.94,0,0,0,325.24,227.17Z" transform="translate(0.01 0.06)"/><path class="cls-10" d="M322.86,230.71c-.17-.58-.52-1.75-.93-2.75a6.71,6.71,0,0,0-2.51-2.41,9,9,0,0,1,1.37,0,10.55,10.55,0,0,1,2.07,1.66,9.06,9.06,0,0,1,.48,2.21A5.33,5.33,0,0,1,322.86,230.71Z" transform="translate(0.01 0.06)"/><path class="cls-10" d="M319.46,232.57a13.06,13.06,0,0,1-2.18-.25,2.59,2.59,0,0,0,.44-1.09c.11-.82.17-2.1-.22-2.48a5.61,5.61,0,0,1-1-2.33,6.64,6.64,0,0,1,1.08-.45,5.56,5.56,0,0,1,.82-.25,1.6,1.6,0,0,0,.09.92,8,8,0,0,1,1,2.72,4.68,4.68,0,0,0,0,1.75A5.49,5.49,0,0,1,319.46,232.57Z" transform="translate(0.01 0.06)"/><path class="cls-10" d="M314.55,229.23a7.49,7.49,0,0,1,.79-1.89,3.42,3.42,0,0,1,.38,1.08c0,.4-.56,1-.49,1.32a7.83,7.83,0,0,1,0,2c-.48-.17-.77-.3-.77-.3a5.91,5.91,0,0,0-.09-2A1.77,1.77,0,0,0,314.55,229.23Z" transform="translate(0.01 0.06)"/><path class="cls-4" d="M315.62,229.31c0,.19-.09.35-.22.35s-.23-.15-.23-.35.1-.34.22-.34S315.62,229.12,315.62,229.31Z" transform="translate(0.01 0.06)"/><path class="cls-4" d="M315.91,228.79a.09.09,0,0,1-.11,0,1.06,1.06,0,0,0-.86,0,.1.1,0,0,1-.12,0,.09.09,0,0,1,0-.12,1.3,1.3,0,0,1,1,0,.09.09,0,0,1,0,.12S315.91,228.78,315.91,228.79Z" transform="translate(0.01 0.06)"/><path class="cls-8" d="M482.07,220.25s-13.41,0-20.84-1.73c-13.39-3.05-16.26,1.6-28,1.73S414.14,217,406.18,217s-15.07,3.37-20.66,3.37S371.79,217,365.7,217s-14.22,3.37-21.42,3.37-22.11-2-29.57-2-13.21,1.92-19.14,1.92-14.23-1.92-14.23-1.92,5.3,5.37,25.41,3.07,25.8,5.77,40.52,2.72c22.49-4.66,34.43,2.59,48.75-1,16.7-4.2,31,3.92,44.89.09S473.94,225.7,482.07,220.25Z" transform="translate(0.01 0.06)"/><path class="cls-6" d="M482.07,220.25s-13.41,0-20.84-1.73c-13.39-3.05-16.26,1.6-28,1.73S414.14,217,406.18,217s-15.07,3.37-20.66,3.37S371.79,217,365.7,217s-14.22,3.37-21.42,3.37-22.11-2-29.57-2-13.21,1.92-19.14,1.92-14.23-1.92-14.23-1.92,5.3,5.37,25.41,3.07,25.8,5.77,40.52,2.72c22.49-4.66,34.43,2.59,48.75-1,16.7-4.2,31,3.92,44.89.09S473.94,225.7,482.07,220.25Z" transform="translate(0.01 0.06)"/><path class="cls-8" d="M370.86,236.15a56.94,56.94,0,0,1-9.53-.79c-6.14-1.39-7.45.73-12.8.79s-8.76-1.49-12.41-1.49-6.9,1.55-9.46,1.55-6.28-1.55-9.07-1.55-6.5,1.55-9.8,1.55-10.12-.94-13.54-.94-6.05.88-8.76.88a36,36,0,0,1-6.52-.88s2.43,2.46,11.64,1.41,11.81,2.64,18.55,1.24c10.29-2.13,15.76,1.19,22.31-.46,7.65-1.92,14.19,1.8,20.55,0S367.14,238.65,370.86,236.15Z" transform="translate(0.01 0.06)"/><path class="cls-10" d="M370.86,236.15a56.94,56.94,0,0,1-9.53-.79c-6.14-1.39-7.45.73-12.8.79s-8.76-1.49-12.41-1.49-6.9,1.55-9.46,1.55-6.28-1.55-9.07-1.55-6.5,1.55-9.8,1.55-10.12-.94-13.54-.94-6.05.88-8.76.88a36,36,0,0,1-6.52-.88s2.43,2.46,11.64,1.41,11.81,2.64,18.55,1.24c10.29-2.13,15.76,1.19,22.31-.46,7.65-1.92,14.19,1.8,20.55,0S367.14,238.65,370.86,236.15Z" transform="translate(0.01 0.06)"/><path class="cls-8" d="M479.62,230.32s-8,0-12.48-1c-8-1.82-9.75,1-16.75,1s-11.47-1.95-16.24-1.95-9,2-12.38,2-8.23-2-11.88-2-8.51,2-12.83,2-13.25-1.22-17.72-1.22-7.92,1.15-11.47,1.15a47.1,47.1,0,0,1-8.52-1.15s3.17,3.22,15.22,1.84,15.46,3.45,24.28,1.63c13.48-2.79,20.63,1.55,29.21-.61,10-2.51,18.57,2.35,26.9.06S474.75,233.58,479.62,230.32Z" transform="translate(0.01 0.06)"/><path class="cls-11" d="M479.62,230.32s-8,0-12.48-1c-8-1.82-9.75,1-16.75,1s-11.47-1.95-16.24-1.95-9,2-12.38,2-8.23-2-11.88-2-8.51,2-12.83,2-13.25-1.22-17.72-1.22-7.92,1.15-11.47,1.15a47.1,47.1,0,0,1-8.52-1.15s3.17,3.22,15.22,1.84,15.46,3.45,24.28,1.63c13.48-2.79,20.63,1.55,29.21-.61,10-2.51,18.57,2.35,26.9.06S474.75,233.58,479.62,230.32Z" transform="translate(0.01 0.06)"/><path class="cls-8" d="M430.61,97.17s.31-3.58,1.93-5,3.91-5.57,3.91-5.57,1.31,2.18.56,4-3.42,3.59-3,5.61Z" transform="translate(0.01 0.06)"/><path class="cls-6" d="M430.61,97.17s.31-3.58,1.93-5,3.91-5.57,3.91-5.57,1.31,2.18.56,4-3.42,3.59-3,5.61Z" transform="translate(0.01 0.06)"/><path class="cls-8" d="M435.81,96.59a1.54,1.54,0,0,0-2-.82,4,4,0,0,1-2.55,0s-1.84-3.08-3.92-3.65-5.95-3.31-5.95-3.31-.23,2.53,1.23,3.81,4.64,1.74,5.14,3.74l-5.71,2s2.35.3,2.51.87,2.41.22,2.41.22l1.8-.64s1,1.24,4.85-1C433.61,97.88,436.44,98.05,435.81,96.59Z" transform="translate(0.01 0.06)"/><path class="cls-10" d="M435.81,96.59a1.54,1.54,0,0,0-2-.82,4,4,0,0,1-2.55,0s-1.84-3.08-3.92-3.65-5.95-3.31-5.95-3.31-.23,2.53,1.23,3.81,4.64,1.74,5.14,3.74l-5.71,2s2.35.3,2.51.87,2.41.22,2.41.22l1.8-.64s1,1.24,4.85-1C433.61,97.88,436.44,98.05,435.81,96.59Z" transform="translate(0.01 0.06)"/><path class="cls-8" d="M435.81,96.59s1.62.55,1.6.77-1.79.14-1.79.14S435,97,435.81,96.59Z" transform="translate(0.01 0.06)"/><path class="cls-4" d="M422.61,92.62c-1.46-1.28-1.23-3.81-1.23-3.81s.66.46,1.58,1a6.38,6.38,0,0,0,1.28,3.74A7.26,7.26,0,0,1,422.61,92.62Z" transform="translate(0.01 0.06)"/><path class="cls-4" d="M436.18,88.61c-.05-.37-.49-.21-1,.11.73-1.16,1.26-2.12,1.26-2.12s1.31,2.18.56,4a11.32,11.32,0,0,1-1.65,2.34C436.71,89.65,436.31,89.51,436.18,88.61Z" transform="translate(0.01 0.06)"/><path class="cls-4" d="M425.45,98.79c.05.26.92.5,1.64.64l-.13,0s-2.25.35-2.41-.22-2.51-.87-2.51-.87l2.06-.73A2.77,2.77,0,0,1,425.45,98.79Z" transform="translate(0.01 0.06)"/><path class="cls-4" d="M434.77,96.48c0,.17-.07.31-.18.32s-.21-.13-.22-.3.07-.31.18-.32S434.76,96.31,434.77,96.48Z" transform="translate(0.01 0.06)"/><path class="cls-4" d="M435,96a.06.06,0,0,1-.09,0,1,1,0,0,0-.77.06.08.08,0,0,1-.11,0s0-.08,0-.11a1.13,1.13,0,0,1,.91,0,.08.08,0,0,1,0,.11Z" transform="translate(0.01 0.06)"/><path class="cls-8" d="M429.77,99.93s.57-.39.48-.83-1.4.41-1.4.41.57-.22.48.19C429.33,99.7,429.74,99.39,429.77,99.93Z" transform="translate(0.01 0.06)"/><path class="cls-12" d="M429.36,98.62s-.72-.84-1-.58.9.71.9.71Z" transform="translate(0.01 0.06)"/><path class="cls-8" d="M428.88,99.45s.57-.38.48-.83S428,99,428,99s.57-.23.48.19C428.44,99.23,428.85,98.91,428.88,99.45Z" transform="translate(0.01 0.06)"/><path class="cls-8" d="M456.63,118.15s1.62-1.89,3.1-2a20,20,0,0,0,4.44-1.57A3.51,3.51,0,0,1,462.9,117c-1.15.7-3.38.65-3.95,2Z" transform="translate(0.01 0.06)"/><path class="cls-6" d="M456.63,118.15s1.62-1.89,3.1-2a20,20,0,0,0,4.44-1.57A3.51,3.51,0,0,1,462.9,117c-1.15.7-3.38.65-3.95,2Z" transform="translate(0.01 0.06)"/><path class="cls-8" d="M461.93,118.41a1.06,1.06,0,0,0-1.39-.57,2.78,2.78,0,0,1-1.77,0s-1.27-2.14-2.71-2.53a20.4,20.4,0,0,1-4.12-2.29,3.52,3.52,0,0,0,.85,2.64c1,.88,3.22,1.2,3.56,2.59l-4,1.4s1.63.21,1.74.6,1.66.16,1.66.16l1.25-.45s.72.86,3.36-.66C460.41,119.3,462.37,119.42,461.93,118.41Z" transform="translate(0.01 0.06)"/><path class="cls-10" d="M461.93,118.41a1.06,1.06,0,0,0-1.39-.57,2.78,2.78,0,0,1-1.77,0s-1.27-2.14-2.71-2.53a20.4,20.4,0,0,1-4.12-2.29,3.52,3.52,0,0,0,.85,2.64c1,.88,3.22,1.2,3.56,2.59l-4,1.4s1.63.21,1.74.6,1.66.16,1.66.16l1.25-.45s.72.86,3.36-.66C460.41,119.3,462.37,119.42,461.93,118.41Z" transform="translate(0.01 0.06)"/><path class="cls-8" d="M461.93,118.41s1.12.38,1.11.53-1.24.1-1.24.1S461.39,118.67,461.93,118.41Z" transform="translate(0.01 0.06)"/><path class="cls-4" d="M452.79,115.66a3.52,3.52,0,0,1-.85-2.64s.46.32,1.1.72a4.34,4.34,0,0,0,.88,2.59A4.89,4.89,0,0,1,452.79,115.66Z" transform="translate(0.01 0.06)"/><path class="cls-4" d="M463.21,115.56c.12-.23-.19-.32-.6-.34.88-.35,1.56-.68,1.56-.68A3.51,3.51,0,0,1,462.9,117a8.11,8.11,0,0,1-1.88.66C463.09,116.36,462.92,116.12,463.21,115.56Z" transform="translate(0.01 0.06)"/><path class="cls-4" d="M454.76,119.93c0,.18.64.34,1.13.44l-.09,0s-1.55.24-1.66-.16-1.74-.6-1.74-.6l1.42-.5A1.89,1.89,0,0,1,454.76,119.93Z" transform="translate(0.01 0.06)"/><path class="cls-4" d="M461.21,118.33c0,.12,0,.21-.13.22s-.14-.09-.15-.21.05-.21.13-.22S461.21,118.21,461.21,118.33Z" transform="translate(0.01 0.06)"/><path class="cls-4" d="M461.37,118a.06.06,0,0,1-.06,0,.67.67,0,0,0-.53,0,.05.05,0,0,1-.08,0,.08.08,0,0,1,0-.08.81.81,0,0,1,.64,0,0,0,0,0,1,0,.07Z" transform="translate(0.01 0.06)"/><path class="cls-8" d="M457.75,120.71s.4-.26.33-.57-1,.29-1,.29.4-.15.33.13C457.44,120.56,457.73,120.34,457.75,120.71Z" transform="translate(0.01 0.06)"/><path class="cls-12" d="M457.46,119.81s-.49-.58-.71-.4.63.49.63.49Z" transform="translate(0.01 0.06)"/><path class="cls-8" d="M457.13,120.38s.4-.26.33-.57-1,.29-1,.29.39-.16.33.13C456.83,120.23,457.11,120,457.13,120.38Z" transform="translate(0.01 0.06)"/><path class="cls-8" d="M304,208.37l45.3,0,58.82-2,8.36.1,6.85-4.45.92.92-4.55,3.57,30.43.38c.39,0,.71,1.32.71,2.94s-.32,2.94-.71,2.94l-41.72-.61-57.95,2.32-13.53.17,2.78,2.36-1.51,2-6.08-4.3-28.12.35c-.44,0-.8-1.51-.8-3.36S303.58,208.37,304,208.37Z" transform="translate(0.01 0.06)"/><path class="cls-6" d="M304,208.37l45.3,0,58.82-2,8.36.1,6.85-4.45.92.92-4.55,3.57,30.43.38c.39,0,.71,1.32.71,2.94s-.32,2.94-.71,2.94l-41.72-.61-57.95,2.32-13.53.17,2.78,2.36-1.51,2-6.08-4.3-28.12.35c-.44,0-.8-1.51-.8-3.36S303.58,208.37,304,208.37Z" transform="translate(0.01 0.06)"/><g class="cls-13"><path d="M419.72,206.54l5.2.07c-5.11.59-11.33,1.15-18.85,1.59-2,.12-4,.17-5.92.17a88.24,88.24,0,0,1-14.64-1.19l16.56-.57,2.59-.09,3.48-.12,8.36.1,1.43-.93,3.46-.33Z" transform="translate(0.01 0.06)"/><path d="M345.6,209.39c7.85-.4,16.79,3,20.43,4.5l-6,.24c-4.11-1.34-9.49-2.66-14.29-2.43a27.21,27.21,0,0,0-12.29,4l-1.28-.91-1.67,0A30.2,30.2,0,0,1,345.6,209.39Z" transform="translate(0.01 0.06)"/><path d="M400.16,211.59a80.89,80.89,0,0,1-26-4l5.66-.2A84.54,84.54,0,0,0,406,209.68a267.67,267.67,0,0,0,28.44-3l8.17.1c-5.06,1.3-15.88,3.37-36.5,4.58Q403,211.59,400.16,211.59Z" transform="translate(0.01 0.06)"/><path d="M450.84,209.34c0,.17,0,.35,0,.52a12.26,12.26,0,0,1-.07,1.26c-2.9-.73-9-1.36-19.46,1.41l-5.79-.09C439.1,208,447,208.46,450.84,209.34Z" transform="translate(0.01 0.06)"/><path d="M303.22,211.73v-.25a34.73,34.73,0,0,0,12.87-3.1h3.83a37.18,37.18,0,0,1-16.62,4.83A13.54,13.54,0,0,1,303.22,211.73Z" transform="translate(0.01 0.06)"/><path d="M335.81,208.41h8.89a29.44,29.44,0,0,0-16.78,6.37l-2.76,0A30.7,30.7,0,0,1,335.81,208.41Z" transform="translate(0.01 0.06)"/><path d="M348.41,208.42h.91l10.05-.34a176.06,176.06,0,0,1,20.21,5.27l-5.27.21C367.35,211.52,356.81,208.83,348.41,208.42Z" transform="translate(0.01 0.06)"/><path d="M325.16,208.4h3.78a40.1,40.1,0,0,1-11.05,6.52l-11.24.14A36.13,36.13,0,0,0,325.16,208.4Z" transform="translate(0.01 0.06)"/><path d="M351.38,214.47l-.9,0-9.17.11C344.55,212.44,348.87,213.51,351.38,214.47Z" transform="translate(0.01 0.06)"/></g><path class="cls-8" d="M303.22,211.73c0,1.85.36,3.36.8,3.36s.81-1.51.81-3.36-.36-3.36-.81-3.36S303.22,209.87,303.22,211.73Z" transform="translate(0.01 0.06)"/><path class="cls-8" d="M319.05,210.82l-1.45,1.66,36.36-2-1.16,1.29,19.56-1.29-1.16,1.29,46.07-2.58v1.4l33.44,1.1c-.13.7-.33,1.15-.56,1.15l-41.72-.61-57.95,2.32-13.53.17-2,.41,4,3-.73,1-6.08-4.3-28.12.35c-.43,0-.78-1.42-.8-3.2Z" transform="translate(0.01 0.06)"/><ellipse class="cls-8" cx="450.17" cy="209.93" rx="0.7" ry="2.94"/><ellipse class="cls-14" cx="450.17" cy="209.93" rx="0.7" ry="2.94"/><path class="cls-8" d="M453.68,212.61l-47.63,1.2-61.9-.66L300,214.76c-.41,0-.7,1.4-.66,3.11s.4,3.08.81,3.07L344,219.25l1.86,0-7.14,2.28-7,1.72.52.71,5.76-1.55-1.37,3.4.74.35,1.72-3.77,14.31-3,51.64.83,48.87-.56c.47,0,.81-1.6.76-3.55S454.15,212.6,453.68,212.61Z" transform="translate(0.01 0.06)"/><path class="cls-6" d="M453.68,212.61l-47.63,1.2-61.9-.66L300,214.76c-.41,0-.7,1.4-.66,3.11s.4,3.08.81,3.07L344,219.25l1.86,0-7.14,2.28-7,1.72.52.71,5.76-1.55-1.37,3.4.74.35,1.72-3.77,14.31-3,51.64.83,48.87-.56c.47,0,.81-1.6.76-3.55S454.15,212.6,453.68,212.61Z" transform="translate(0.01 0.06)"/><path class="cls-15" d="M345.78,221,339,222.42l-.09.19h-.5A7.27,7.27,0,0,1,345.78,221Z" transform="translate(0.01 0.06)"/><path class="cls-15" d="M326.84,219.91l-3.5.14a33.07,33.07,0,0,1,7.78-6.42l8-.3A26.6,26.6,0,0,0,326.84,219.91Z" transform="translate(0.01 0.06)"/><path class="cls-15" d="M317.28,220.28l-7,.27a37.26,37.26,0,0,0,9.47-6.51l4.45-.16A45.41,45.41,0,0,1,317.28,220.28Z" transform="translate(0.01 0.06)"/><path class="cls-15" d="M313.38,214.27a31.2,31.2,0,0,1-13.82,5.67,10.44,10.44,0,0,1-.24-2.07c0-.22,0-.43,0-.64a27.53,27.53,0,0,0,8.89-2.77Z" transform="translate(0.01 0.06)"/><path class="cls-15" d="M377.25,219.79l-6.89-.11c-6.5-2.66-14.71-5.51-21.9-6.48l12.29.13A145.88,145.88,0,0,1,377.25,219.79Z" transform="translate(0.01 0.06)"/><path class="cls-15" d="M361.38,219.53l-8-.13-.72.15a25.4,25.4,0,0,0-9.42-1.48,18.12,18.12,0,0,0-5.89,1.44l-7.12.27c3.33-2.55,7.8-5,12.91-5.35C349.54,214,356.64,217,361.38,219.53Z" transform="translate(0.01 0.06)"/><path class="cls-15" d="M408,215.33c7.05-.56,13-1.26,18.08-2l15.63-.39c-6.65,1.8-17.28,3.86-33.62,5.14-2.19.18-4.31.25-6.36.24a63.21,63.21,0,0,1-24.16-4.79l8.9.1A65.57,65.57,0,0,0,408,215.33Z" transform="translate(0.01 0.06)"/><path class="cls-15" d="M454.5,214.64a13.15,13.15,0,0,1,.11,1.48c0,.46,0,.9,0,1.3-3.49-.85-9.57-1.06-19,2.46l-2.85,0-3.66-.11C441.82,213.77,449.9,213.63,454.5,214.64Z" transform="translate(0.01 0.06)"/><path class="cls-8" d="M337.31,226.19l-.74-.35,1.37-3.4L332.18,224l-.52-.71,7-1.72,7.14-2.28-1.86,0-43.86,1.69c-.38,0-.72-1.19-.8-2.73l7.47-.52,2.88-.84L347,216l35.68,1.31-1.91-1.35,24.95,1.37-2.07-1.91,31.35,2-2-2.75,21.51,1.24a1.48,1.48,0,0,1,0,.21c.05,1.95-.29,3.54-.76,3.55l-48.87.56-51.64-.83.75-1.44L339,222.42Z" transform="translate(0.01 0.06)"/><path class="cls-8" d="M300.8,217.83c0,1.71-.26,3.1-.67,3.11s-.77-1.36-.81-3.07.25-3.1.66-3.11S300.76,216.13,300.8,217.83Z" transform="translate(0.01 0.06)"/><path class="cls-14" d="M300.8,217.83c0,1.71-.26,3.1-.67,3.11s-.77-1.36-.81-3.07.25-3.1.66-3.11S300.76,216.13,300.8,217.83Z" transform="translate(0.01 0.06)"/><path class="cls-8" d="M454.61,216.12c.05,1.95-.29,3.54-.76,3.55s-.88-1.56-.93-3.51.29-3.54.76-3.55S454.56,214.17,454.61,216.12Z" transform="translate(0.01 0.06)"/><path class="cls-8" d="M442.91,219.88s1-1.56.29-1.28c0,0,.93-1.72.22-1.32,0,0,.67-1.38.15-1.2,0,0,.55-1.28.1-1.17,0,0,.52-1.41,0-1.18,0,0,.54-1.66,0-1.32,0,0,.4-1.71-.12-1.38,0,0,.32-1.56-.19-1.27,0,0,.14-1.6-.3-1.31,0,0,0-1.26-.33-1.08,0,0,.06-1.2-.79-1.09s-.5.64-.13,1.09c0,0,.08,1.22.43,1.14,0,0,0,1.87.39,1.59,0,0-.19,1.44.16,1.23,0,0-.29,1.61.08,1.31,0,0-.44,1.6,0,1.29,0,0-.47,1.54-.08,1.23,0,0-.54,1.45-.16,1.25,0,0-.59,1.33-.19,1.12,0,0-.77,1.59-.26,1.18,0,0-.8,1.32-.22,1.37A1.76,1.76,0,0,0,442.91,219.88Z" transform="translate(0.01 0.06)"/><path class="cls-11" d="M442.91,219.88s1-1.56.29-1.28c0,0,.93-1.72.22-1.32,0,0,.67-1.38.15-1.2,0,0,.55-1.28.1-1.17,0,0,.52-1.41,0-1.18,0,0,.54-1.66,0-1.32,0,0,.4-1.71-.12-1.38,0,0,.32-1.56-.19-1.27,0,0,.14-1.6-.3-1.31,0,0,0-1.26-.33-1.08,0,0,.06-1.2-.79-1.09s-.5.64-.13,1.09c0,0,.08,1.22.43,1.14,0,0,0,1.87.39,1.59,0,0-.19,1.44.16,1.23,0,0-.29,1.61.08,1.31,0,0-.44,1.6,0,1.29,0,0-.47,1.54-.08,1.23,0,0-.54,1.45-.16,1.25,0,0-.59,1.33-.19,1.12,0,0-.77,1.59-.26,1.18,0,0-.8,1.32-.22,1.37A1.76,1.76,0,0,0,442.91,219.88Z" transform="translate(0.01 0.06)"/><path class="cls-15" d="M442.42,217.53c-.4.21.19-1.12.19-1.12-.38.2.16-1.25.16-1.25-.39.31.08-1.23.08-1.23-.42.31,0-1.29,0-1.29-.37.3-.08-1.31-.08-1.31-.35.21-.16-1.23-.16-1.23-.43.28-.39-1.59-.39-1.59-.35.08-.43-1.14-.43-1.14-.37-.45-.72-1,.13-1.09a.85.85,0,0,1,.23,0c-.8.12-.46.64-.09,1.08,0,0,.08,1.22.43,1.14,0,0,0,1.87.38,1.59,0,0-.18,1.44.17,1.23,0,0-.29,1.61.07,1.31,0,0-.44,1.6,0,1.29,0,0-.47,1.54-.09,1.23,0,0-.53,1.45-.15,1.25,0,0-.59,1.33-.2,1.12,0,0-.77,1.59-.25,1.18,0,0-.81,1.32-.23,1.37h-.26c-.58-.05.22-1.37.22-1.37C441.65,219.12,442.42,217.53,442.42,217.53Z" transform="translate(0.01 0.06)"/><path class="cls-8" d="M440,220.11s1.13-1.49.41-1.28c0,0,1.11-1.65.36-1.31,0,0,.81-1.34.27-1.21,0,0,.68-1.25.2-1.18,0,0,.67-1.38.16-1.2,0,0,.7-1.63.09-1.34,0,0,.58-1.7,0-1.42,0,0,.47-1.55-.07-1.3,0,0,.29-1.62-.18-1.36,0,0,.15-1.28-.24-1.13,0,0,.18-1.22-.69-1.19s-.57.6-.24,1.1c0,0,0,1.24.33,1.2,0,0-.23,1.89.24,1.65,0,0-.33,1.44.05,1.27,0,0-.46,1.6-.05,1.34,0,0-.61,1.58-.15,1.3,0,0-.62,1.52-.2,1.24,0,0-.69,1.43-.28,1.26,0,0-.73,1.3-.31,1.13,0,0-.94,1.53-.37,1.17,0,0-.95,1.26-.36,1.36A1.74,1.74,0,0,0,440,220.11Z" transform="translate(0.01 0.06)"/><path class="cls-11" d="M440,220.11s1.13-1.49.41-1.28c0,0,1.11-1.65.36-1.31,0,0,.81-1.34.27-1.21,0,0,.68-1.25.2-1.18,0,0,.67-1.38.16-1.2,0,0,.7-1.63.09-1.34,0,0,.58-1.7,0-1.42,0,0,.47-1.55-.07-1.3,0,0,.29-1.62-.18-1.36,0,0,.15-1.28-.24-1.13,0,0,.18-1.22-.69-1.19s-.57.6-.24,1.1c0,0,0,1.24.33,1.2,0,0-.23,1.89.24,1.65,0,0-.33,1.44.05,1.27,0,0-.46,1.6-.05,1.34,0,0-.61,1.58-.15,1.3,0,0-.62,1.52-.2,1.24,0,0-.69,1.43-.28,1.26,0,0-.73,1.3-.31,1.13,0,0-.94,1.53-.37,1.17,0,0-.95,1.26-.36,1.36A1.74,1.74,0,0,0,440,220.11Z" transform="translate(0.01 0.06)"/><path class="cls-15" d="M439.75,217.68c-.42.17.31-1.13.31-1.13-.41.17.28-1.26.28-1.26-.42.28.2-1.24.2-1.24-.46.28.15-1.3.15-1.3-.41.26.05-1.34.05-1.34-.38.17-.05-1.27-.05-1.27-.47.24-.24-1.65-.24-1.65-.36,0-.33-1.2-.33-1.2-.33-.5-.64-1.06.24-1.1a.8.8,0,0,1,.23,0c-.82.05-.53.61-.2,1.1,0,0,0,1.24.33,1.19,0,0-.22,1.9.24,1.65,0,0-.33,1.45.05,1.28,0,0-.46,1.6-.05,1.33,0,0-.61,1.58-.15,1.31,0,0-.62,1.52-.2,1.24,0,0-.69,1.43-.28,1.26,0,0-.73,1.3-.31,1.12,0,0-.94,1.54-.37,1.18,0,0-.95,1.26-.36,1.36l-.27,0c-.59-.1.36-1.36.36-1.36C438.81,219.21,439.75,217.68,439.75,217.68Z" transform="translate(0.01 0.06)"/><path class="cls-8" d="M311.29,221.16s1.13-1.49.42-1.28c0,0,1.11-1.65.35-1.31,0,0,.82-1.34.27-1.21,0,0,.68-1.24.21-1.17,0,0,.67-1.38.15-1.2,0,0,.71-1.63.1-1.35,0,0,.57-1.7,0-1.41,0,0,.47-1.56-.07-1.31,0,0,.29-1.62-.18-1.36,0,0,.16-1.28-.23-1.13,0,0,.18-1.21-.7-1.18s-.57.6-.23,1.09c0,0,0,1.24.32,1.2,0,0-.22,1.89.24,1.65,0,0-.32,1.45.05,1.28,0,0-.45,1.59-.05,1.33,0,0-.61,1.58-.14,1.31,0,0-.63,1.52-.21,1.24,0,0-.68,1.42-.28,1.26,0,0-.72,1.29-.31,1.12,0,0-.93,1.53-.37,1.17,0,0-.95,1.27-.36,1.37A1.77,1.77,0,0,0,311.29,221.16Z" transform="translate(0.01 0.06)"/><path class="cls-11" d="M311.29,221.16s1.13-1.49.42-1.28c0,0,1.11-1.65.35-1.31,0,0,.82-1.34.27-1.21,0,0,.68-1.24.21-1.17,0,0,.67-1.38.15-1.2,0,0,.71-1.63.1-1.35,0,0,.57-1.7,0-1.41,0,0,.47-1.56-.07-1.31,0,0,.29-1.62-.18-1.36,0,0,.16-1.28-.23-1.13,0,0,.18-1.21-.7-1.18s-.57.6-.23,1.09c0,0,0,1.24.32,1.2,0,0-.22,1.89.24,1.65,0,0-.32,1.45.05,1.28,0,0-.45,1.59-.05,1.33,0,0-.61,1.58-.14,1.31,0,0-.63,1.52-.21,1.24,0,0-.68,1.42-.28,1.26,0,0-.72,1.29-.31,1.12,0,0-.93,1.53-.37,1.17,0,0-.95,1.27-.36,1.37A1.77,1.77,0,0,0,311.29,221.16Z" transform="translate(0.01 0.06)"/><path class="cls-15" d="M311,218.73c-.41.17.31-1.12.31-1.12-.4.16.28-1.26.28-1.26-.42.28.21-1.24.21-1.24-.47.27.14-1.31.14-1.31-.4.26.05-1.33.05-1.33-.37.17-.05-1.28-.05-1.28-.46.24-.24-1.65-.24-1.65-.36,0-.32-1.2-.32-1.2-.34-.49-.64-1.06.23-1.09a.61.61,0,0,1,.24,0c-.83,0-.53.6-.2,1.09,0,0,0,1.24.32,1.19,0,0-.22,1.9.24,1.66,0,0-.32,1.44,0,1.27,0,0-.45,1.6,0,1.33,0,0-.61,1.59-.14,1.31,0,0-.63,1.52-.21,1.24,0,0-.68,1.43-.28,1.26,0,0-.72,1.3-.3,1.13,0,0-.94,1.53-.38,1.17,0,0-.94,1.26-.36,1.36l-.27,0c-.59-.1.36-1.37.36-1.37C310.08,220.26,311,218.73,311,218.73Z" transform="translate(0.01 0.06)"/><path class="cls-8" d="M308.57,221.28s1.13-1.49.41-1.27c0,0,1.11-1.66.36-1.32,0,0,.81-1.34.27-1.21,0,0,.67-1.24.2-1.17,0,0,.67-1.38.15-1.2,0,0,.71-1.63.1-1.35,0,0,.58-1.7,0-1.41,0,0,.47-1.56-.08-1.31,0,0,.3-1.62-.17-1.36,0,0,.15-1.28-.24-1.13,0,0,.18-1.21-.69-1.18s-.57.6-.24,1.09c0,0,0,1.25.33,1.2,0,0-.23,1.9.24,1.65,0,0-.33,1.45,0,1.28,0,0-.46,1.6-.06,1.33,0,0-.6,1.58-.14,1.31,0,0-.62,1.52-.21,1.24,0,0-.68,1.43-.28,1.26,0,0-.72,1.29-.3,1.12,0,0-.94,1.53-.38,1.17,0,0-.94,1.27-.35,1.37A1.79,1.79,0,0,0,308.57,221.28Z" transform="translate(0.01 0.06)"/><path class="cls-11" d="M308.57,221.28s1.13-1.49.41-1.27c0,0,1.11-1.66.36-1.32,0,0,.81-1.34.27-1.21,0,0,.67-1.24.2-1.17,0,0,.67-1.38.15-1.2,0,0,.71-1.63.1-1.35,0,0,.58-1.7,0-1.41,0,0,.47-1.56-.08-1.31,0,0,.3-1.62-.17-1.36,0,0,.15-1.28-.24-1.13,0,0,.18-1.21-.69-1.18s-.57.6-.24,1.09c0,0,0,1.25.33,1.2,0,0-.23,1.9.24,1.65,0,0-.33,1.45,0,1.28,0,0-.46,1.6-.06,1.33,0,0-.6,1.58-.14,1.31,0,0-.62,1.52-.21,1.24,0,0-.68,1.43-.28,1.26,0,0-.72,1.29-.3,1.12,0,0-.94,1.53-.38,1.17,0,0-.94,1.27-.35,1.37A1.79,1.79,0,0,0,308.57,221.28Z" transform="translate(0.01 0.06)"/><path class="cls-15" d="M308.29,218.85c-.42.17.3-1.12.3-1.12-.4.17.28-1.26.28-1.26-.41.28.21-1.24.21-1.24-.46.27.14-1.31.14-1.31-.4.27.06-1.33.06-1.33-.38.17,0-1.28,0-1.28-.47.25-.24-1.65-.24-1.65-.36.05-.33-1.2-.33-1.2-.33-.49-.64-1.06.24-1.09a.56.56,0,0,1,.23,0c-.82,0-.53.6-.2,1.09,0,0,0,1.24.33,1.19,0,0-.23,1.9.24,1.66,0,0-.33,1.44.05,1.27,0,0-.46,1.6-.06,1.33,0,0-.6,1.59-.14,1.31,0,0-.62,1.52-.2,1.24,0,0-.69,1.43-.28,1.26,0,0-.73,1.3-.31,1.13,0,0-.94,1.53-.37,1.17,0,0-.95,1.26-.37,1.36l-.26,0c-.59-.1.35-1.37.35-1.37C307.35,220.38,308.29,218.85,308.29,218.85Z" transform="translate(0.01 0.06)"/><path class="cls-8" d="M371.47,220.53s1.4-1.25.65-1.18c0,0,1.41-1.4.61-1.22,0,0,1.06-1.16.5-1.13,0,0,.9-1.09.43-1.11,0,0,.92-1.23.38-1.15,0,0,1-1.47.36-1.3,0,0,.89-1.56.28-1.39,0,0,.77-1.43.19-1.29,0,0,.6-1.53.09-1.37,0,0,.4-1.23,0-1.15,0,0,.42-1.16-.45-1.3s-.67.48-.44,1c0,0-.28,1.21.09,1.23,0,0-.59,1.82-.09,1.67,0,0-.6,1.35-.2,1.26,0,0-.75,1.48-.31,1.3,0,0-.9,1.43-.39,1.25,0,0-.91,1.37-.44,1.18,0,0-.95,1.27-.52,1.18,0,0-1,1.13-.52,1.05,0,0-1.22,1.32-.59,1.07,0,0-1.18,1.06-.62,1.27A1.76,1.76,0,0,0,371.47,220.53Z" transform="translate(0.01 0.06)"/><path class="cls-11" d="M371.47,220.53s1.4-1.25.65-1.18c0,0,1.41-1.4.61-1.22,0,0,1.06-1.16.5-1.13,0,0,.9-1.09.43-1.11,0,0,.92-1.23.38-1.15,0,0,1-1.47.36-1.3,0,0,.89-1.56.28-1.39,0,0,.77-1.43.19-1.29,0,0,.6-1.53.09-1.37,0,0,.4-1.23,0-1.15,0,0,.42-1.16-.45-1.3s-.67.48-.44,1c0,0-.28,1.21.09,1.23,0,0-.59,1.82-.09,1.67,0,0-.6,1.35-.2,1.26,0,0-.75,1.48-.31,1.3,0,0-.9,1.43-.39,1.25,0,0-.91,1.37-.44,1.18,0,0-.95,1.27-.52,1.18,0,0-1,1.13-.52,1.05,0,0-1.22,1.32-.59,1.07,0,0-1.18,1.06-.62,1.27A1.76,1.76,0,0,0,371.47,220.53Z" transform="translate(0.01 0.06)"/><path class="cls-15" d="M371.67,218.09c-.44.08.52-1.05.52-1.05-.43.09.52-1.18.52-1.18-.47.19.44-1.18.44-1.18-.51.18.39-1.25.39-1.25-.44.18.31-1.3.31-1.3-.4.09.2-1.26.2-1.26-.5.15.09-1.67.09-1.67-.37,0-.09-1.23-.09-1.23-.23-.55-.42-1.17.44-1a.78.78,0,0,1,.23.07c-.82-.11-.64.49-.41,1,0,0-.27,1.21.09,1.23,0,0-.59,1.82-.09,1.67,0,0-.6,1.35-.2,1.26,0,0-.75,1.48-.31,1.3,0,0-.9,1.43-.39,1.25,0,0-.91,1.37-.44,1.18,0,0-1,1.27-.52,1.18,0,0-1,1.13-.52,1,0,0-1.22,1.32-.59,1.08,0,0-1.17,1-.62,1.27a1.29,1.29,0,0,1-.26-.08c-.56-.21.62-1.27.62-1.27C370.45,219.41,371.67,218.09,371.67,218.09Z" transform="translate(0.01 0.06)"/><path class="cls-8" d="M376.19,219.59s.24-1.86-.27-1.32c0,0,.15-2-.34-1.31,0,0,0-1.57-.37-1.19,0,0,0-1.41-.4-1.12,0,0-.1-1.53-.46-1.12,0,0-.19-1.77-.58-1.22,0,0-.35-1.76-.69-1.23,0,0-.36-1.59-.71-1.1,0,0-.55-1.55-.83-1.1,0,0-.5-1.18-.76-.86,0,0-.45-1.14-1.19-.68s-.2.8.34,1.07c0,0,.58,1.09.87.87,0,0,.75,1.76,1,1.32,0,0,.43,1.42.67,1.08,0,0,.4,1.62.62,1.19,0,0,.25,1.67.52,1.2,0,0,.21,1.63.43,1.18,0,0,.12,1.58.39,1.24,0,0,0,1.48.29,1.12,0,0-.06,1.8.25,1.21,0,0-.19,1.56.37,1.36A1.74,1.74,0,0,0,376.19,219.59Z" transform="translate(0.01 0.06)"/><path class="cls-11" d="M376.19,219.59s.24-1.86-.27-1.32c0,0,.15-2-.34-1.31,0,0,0-1.57-.37-1.19,0,0,0-1.41-.4-1.12,0,0-.1-1.53-.46-1.12,0,0-.19-1.77-.58-1.22,0,0-.35-1.76-.69-1.23,0,0-.36-1.59-.71-1.1,0,0-.55-1.55-.83-1.1,0,0-.5-1.18-.76-.86,0,0-.45-1.14-1.19-.68s-.2.8.34,1.07c0,0,.58,1.09.87.87,0,0,.75,1.76,1,1.32,0,0,.43,1.42.67,1.08,0,0,.4,1.62.62,1.19,0,0,.25,1.67.52,1.2,0,0,.21,1.63.43,1.18,0,0,.12,1.58.39,1.24,0,0,0,1.48.29,1.12,0,0-.06,1.8.25,1.21,0,0-.19,1.56.37,1.36A1.74,1.74,0,0,0,376.19,219.59Z" transform="translate(0.01 0.06)"/><path class="cls-15" d="M374.75,217.61c-.28.36-.29-1.12-.29-1.12-.27.34-.39-1.24-.39-1.24-.22.45-.43-1.18-.43-1.18-.27.47-.52-1.2-.52-1.2-.22.43-.62-1.19-.62-1.19-.24.34-.67-1.08-.67-1.08-.28.44-1-1.32-1-1.32-.29.22-.87-.87-.87-.87-.54-.27-1.09-.61-.34-1.07a.51.51,0,0,1,.22-.09c-.7.45-.16.78.36,1,0,0,.59,1.1.88.88,0,0,.74,1.76,1,1.32,0,0,.44,1.41.68,1.08,0,0,.4,1.61.61,1.18,0,0,.26,1.68.53,1.21,0,0,.21,1.63.43,1.18,0,0,.11,1.58.38,1.23,0,0,0,1.49.29,1.13,0,0-.05,1.8.26,1.21,0,0-.2,1.56.36,1.36a1.33,1.33,0,0,1-.24.11c-.56.2-.37-1.36-.37-1.36C374.69,219.41,374.75,217.61,374.75,217.61Z" transform="translate(0.01 0.06)"/><path class="cls-4" d="M364,190s1.68-.47,4.6-1.14c.67-2.08,1.47-4.16,2-4.37s.54,1.9.36,3.85c2.72-.58,6.13-1.23,10-1.81a15.63,15.63,0,0,1,1.95-4.49c1.72-2.54,2.18-8.47,3.84-9.55s-.66,10.57.69,9.55c.81-.61,1,1.62,1,3.52a128.64,128.64,0,0,1,29,0c.44-2,1.19-4.95,2-6,1.19-1.69,2.2,2.2,3.64.51s.93-11.52,2.42-13.83,1.22,15,3.51,10.45c2-3.94,3.75,8.84,4.21,12.45a56.07,56.07,0,0,1,5.46,2.2s15.57-38.12,2.49-84.49c0,0-42.38,9.57-92.27,1.73C348.94,108.55,370.26,139,364,190Zm47.86-34.32c2-4.6,1.78-11.41,3.83-16.08s-1,15.59,1.44,10.85,0,13.71,0,13.71c-.58,5-3.75-.84-5.27,3.86S409.82,160.3,411.86,155.71ZM378.7,136c1.73-2.42-.38,9,.88,7.95s0,11.74,0,11.74-1-3.28-3.26,1.29S377,138.45,378.7,136Z" transform="translate(0.01 0.06)"/><path class="cls-6" d="M364,190s1.68-.47,4.6-1.14c.67-2.08,1.47-4.16,2-4.37s.54,1.9.36,3.85c2.72-.58,6.13-1.23,10-1.81a15.63,15.63,0,0,1,1.95-4.49c1.72-2.54,2.18-8.47,3.84-9.55s-.66,10.57.69,9.55c.81-.61,1,1.62,1,3.52a128.64,128.64,0,0,1,29,0c.44-2,1.19-4.95,2-6,1.19-1.69,2.2,2.2,3.64.51s.93-11.52,2.42-13.83,1.22,15,3.51,10.45c2-3.94,3.75,8.84,4.21,12.45a56.07,56.07,0,0,1,5.46,2.2s15.57-38.12,2.49-84.49c0,0-42.38,9.57-92.27,1.73C348.94,108.55,370.26,139,364,190Zm47.86-34.32c2-4.6,1.78-11.41,3.83-16.08s-1,15.59,1.44,10.85,0,13.71,0,13.71c-.58,5-3.75-.84-5.27,3.86S409.82,160.3,411.86,155.71ZM378.7,136c1.73-2.42-.38,9,.88,7.95s0,11.74,0,11.74-1-3.28-3.26,1.29S377,138.45,378.7,136Z" transform="translate(0.01 0.06)"/><path class="cls-16" d="M348.94,108.55S370.26,139,364,190c0,0,1.68-.47,4.6-1.14.67-2.08,1.47-4.16,2-4.37s.54,1.9.36,3.85c2.72-.58,6.13-1.23,10-1.81a15.63,15.63,0,0,1,1.95-4.49c1.72-2.54,2.18-8.47,3.84-9.55s-.66,10.57.69,9.55c.81-.61,1,1.62,1,3.52l1.42-.14C391.88,171.64,396,119.83,348.94,108.55ZM378.7,136c1.73-2.42-.38,9,.88,7.95s0,11.74,0,11.74-1-3.28-3.26,1.29S377,138.45,378.7,136Z" transform="translate(0.01 0.06)"/><path class="cls-8" d="M395.36,211.23l0-34.45-1.14-44.72.06-6.36-2.51-5.21.52-.7,2,3.46.21-23.14c0-.29.74-.53,1.66-.53s1.65.24,1.65.53l-.34,31.73,1.3,44.06.09,10.29,1.33-2.11,1.13,1.15-2.42,4.62.19,21.38c0,.34-.84.61-1.88.61S395.36,211.57,395.36,211.23Z" transform="translate(0.01 0.06)"/><path class="cls-6" d="M396.48,99.59c.77,0,1.37.26,1.37.52l-.34,31.73,1.3,44.06.09,10.29L396.58,190V142.78l-1-1.52,1-21.77-1-4.3Z" transform="translate(0.01 0.06)"/><path class="cls-8" d="M345.93,108.18l28.53-.79,33.09-.44,5.92-1.12,1.16-2.42.47.24-.92,2.17,3.73-.92.33.47-4.57,1-1.72.51,2.45,0,30.76-.75a.73.73,0,0,1,0,1.41l-31.54.63-33.33.39-4.83,0-1.2,0L359,109l-1.28,1.75-.5-.15,1.16-1.58-12.46.35c-.26,0-.48-.26-.49-.6A.57.57,0,0,1,345.93,108.18Z" transform="translate(0.01 0.06)"/><path class="cls-4" d="M394.5,107c.17,1.23,2.95,1,3.76,1,.49,0,.49.72,0,.76-1.12.09-4.25.25-4.49-1.51-.07-.48.66-.68.73-.2Z" transform="translate(0.01 0.06)"/><g class="cls-17"><path class="cls-18" d="M394.5,107c.17,1.23,2.95,1,3.76,1,.49,0,.49.72,0,.76-1.12.09-4.25.25-4.49-1.51-.07-.48.66-.68.73-.2Z" transform="translate(0.01 0.06)"/></g><path class="cls-4" d="M398.19,107.09a7,7,0,0,1-3.95,1.83c-.48.08-.69-.66-.21-.73a6.45,6.45,0,0,0,3.63-1.64c.34-.36.87.18.53.54Z" transform="translate(0.01 0.06)"/><path class="cls-8" d="M446.44,144.92l-18.91.73a155.25,155.25,0,0,0-2.61-25.5c6.41-.1,15.05-1.78,18.86-2.59A142.79,142.79,0,0,1,446.44,144.92Z" transform="translate(0.01 0.06)"/><path class="cls-19" d="M446.44,144.92l-18.91.73a155.25,155.25,0,0,0-2.61-25.5c6.41-.1,15.05-1.78,18.86-2.59A142.79,142.79,0,0,1,446.44,144.92Z" transform="translate(0.01 0.06)"/><path class="cls-4" d="M443.9,144.06l-.42,2.2c-.09.48-.83.28-.74-.2.14-.74.29-1.47.43-2.2C443.26,143.37,444,143.58,443.9,144.06Z" transform="translate(0.01 0.06)"/><path class="cls-4" d="M438.4,144.19l.42,2.35c.09.48-.65.69-.74.2l-.42-2.34C437.57,143.92,438.31,143.71,438.4,144.19Z" transform="translate(0.01 0.06)"/><path class="cls-4" d="M430.76,144l.71.67.3-.6c.22-.43.88,0,.66.39l-.39.76.67.64c.35.34-.19.88-.54.54l-.49-.47c-.14.29-.29.58-.44.87s-.88.06-.65-.38l.52-1-.89-.84C429.87,144.23,430.41,143.69,430.76,144Z" transform="translate(0.01 0.06)"/><path class="cls-4" d="M426.24,141.13l1.95-.59c.47-.14.67.59.2.74l-1.95.59C426,142,425.77,141.28,426.24,141.13Z" transform="translate(0.01 0.06)"/><path class="cls-4" d="M425.56,133.51l2.12-.42c.48-.1.68.64.2.73l-2.12.43C425.29,134.34,425.08,133.61,425.56,133.51Z" transform="translate(0.01 0.06)"/><path class="cls-4" d="M424.56,124.86h2.16a.38.38,0,0,1,0,.76h-2.16A.38.38,0,0,1,424.56,124.86Z" transform="translate(0.01 0.06)"/><path class="cls-4" d="M428.3,120.73c.16-.36.33-.72.5-1.08l-.78-.83c-.33-.36.2-.9.54-.54l.58.63c.09-.19.17-.37.26-.55.21-.45.86-.06.66.38l-.36.77,1.06,1.14c.33.36-.2.9-.54.54l-.87-.93-.39.85C428.75,121.56,428.09,121.17,428.3,120.73Z" transform="translate(0.01 0.06)"/><path class="cls-4" d="M437.26,117.36c.36.73.73,1.46,1.1,2.18.22.44-.44.82-.66.39l-1.1-2.18C436.38,117.31,437,116.93,437.26,117.36Z" transform="translate(0.01 0.06)"/><path class="cls-19" d="M819.51,27.3,800.6,28A155.06,155.06,0,0,0,798,2.53c6.41-.1,15-1.78,18.85-2.59A142,142,0,0,1,819.51,27.3Z" transform="translate(0.01 0.06)"/><path class="cls-19" d="M819.51,311.3,800.6,312a155.06,155.06,0,0,0-2.61-25.5c6.41-.1,15-1.78,18.85-2.59A142,142,0,0,1,819.51,311.3Z" transform="translate(0.01 0.06)"/><path class="cls-19" d="M21.51,311.3,2.6,312A155.06,155.06,0,0,0,0,286.53c6.41-.1,15-1.78,18.85-2.59A142,142,0,0,1,21.51,311.3Z" transform="translate(0.01 0.06)"/><path class="cls-19" d="M21.51,27.3,2.6,28A155.06,155.06,0,0,0,0,2.53C6.4,2.43,15,.75,18.84-.06A142,142,0,0,1,21.51,27.3Z" transform="translate(0.01 0.06)"/><path class="cls-20" d="M333.09,209.85l3.35,1.51s1.7-.35,1.94.18-.61,1.3-1.82,1.32a33.38,33.38,0,0,0-6.36.48c-2.1.49-.14-2.59-.12-3.38,0,0-4.75-23.73-2.74-30.9l-1.68-9.69,7.14.11.14,12.09Z" transform="translate(0.01 0.06)"/><path class="cls-8" d="M328.13,150a107.79,107.79,0,0,1,5.11,24.46l-3.92,1.62,4.24,2.82.48,5.62a29.26,29.26,0,0,0-3.19-1.23c-1.06-.27-1,1.32-1.87,1.23s-.94-2.85-.94-2.85a13.11,13.11,0,0,0-1.11,2.5c-.1.67-.73.08-.73.08l-.53-6.08-3.83-14.46s-2.92-1.79-1.49-12.53Z" transform="translate(0.01 0.06)"/><path class="cls-12" d="M328.13,150a107.79,107.79,0,0,1,5.11,24.46l-3.92,1.62,4.24,2.82.48,5.62a29.26,29.26,0,0,0-3.19-1.23c-1.06-.27-1,1.32-1.87,1.23s-.94-2.85-.94-2.85a13.11,13.11,0,0,0-1.11,2.5c-.1.67-.73.08-.73.08l-.53-6.08-3.83-14.46s-2.92-1.79-1.49-12.53Z" transform="translate(0.01 0.06)"/><path class="cls-8" d="M333.24,174.45l.32-1.73s-1.14,1.62-1.77,1.17-1.48,1-1.48,1l-.72-.18-.72,1.39,1,2.07.27-.63,1.09,1.79.66-.39,2.11,1.7-.43-1.7-4.24-2.82Z" transform="translate(0.01 0.06)"/><path class="cls-19" d="M333.24,174.45l.32-1.73s-1.14,1.62-1.77,1.17-1.48,1-1.48,1l-.72-.18-.72,1.39,1,2.07.27-.63,1.09,1.79.66-.39,2.11,1.7-.43-1.7-4.24-2.82Z" transform="translate(0.01 0.06)"/><path class="cls-12" d="M330.48,188.78s-.86-1.25-.67-1.56,1.37,1.17,1.37,1.17,1.15-1.49,1.47-1-.95,1.91-.95,1.91.48,1.38.3,1.71-.9-1.24-.9-1.24-2.3,2.2-2.67,2S330.48,188.78,330.48,188.78Z" transform="translate(0.01 0.06)"/><path class="cls-20" d="M326.92,133.15l4.51,6.48,5.3-3.93s.53-4.12,1.67-4.44c.86-.25,2,.78,2.28,1.61a3.32,3.32,0,0,1-.53,2.23,27.27,27.27,0,0,1-2,2s-6.38,8.3-8.36,6.6-6.24-9.44-6.24-9.44Z" transform="translate(0.01 0.06)"/><path class="cls-8" d="M321.06,130.76s4.24-.82,6.43,1.48a14.33,14.33,0,0,1,2.82,3.83l-.66.63-1.54-1.16.67,1.56-.63.3-1.23-.7.07,1.48-1.14.54Z" transform="translate(0.01 0.06)"/><path class="cls-6" d="M321.06,130.76s4.24-.82,6.43,1.48a14.33,14.33,0,0,1,2.82,3.83l-.66.63-1.54-1.16.67,1.56-.63.3-1.23-.7.07,1.48-1.14.54Z" transform="translate(0.01 0.06)"/><path class="cls-12" d="M323.44,132.57l1.16-.64a12,12,0,0,1,4.18,5.17l-.63.3-1.23-.7.07,1.48-1.14.54-2.91-4.84Z" transform="translate(0.01 0.06)"/><path class="cls-12" d="M325.18,176.33l-3.34-12.63s-1.36-.83-1.77-4.79l4.28-3.86,1.5.6s1.79,16.06.93,20.74A2.58,2.58,0,0,0,325.18,176.33Z" transform="translate(0.01 0.06)"/><path class="cls-20" d="M325,168s.4,12.2-.13,15.27-7.65,26.89-7.65,26.89l3,2.14s1.74,0,1.87.55-.85,1.16-2.05.94a33.24,33.24,0,0,0-6.32-.77c-2.16.07.37-2.57.54-3.34,0,0,1.57-20.14,4.88-27.23l-1.87-16.25Z" transform="translate(0.01 0.06)"/><path class="cls-4" d="M311.29,121.53s-1.48.48-1.45,1.64a20,20,0,0,1,.21,3c-.09,1.61.76,2.16,1,3.49s.92.91.68-.12-.83-1.55-.9-2.85,1.66,1.45,1.58,3.51-.14,2.89.38,2.82.42-1.6.36-2.82.76-.23.76.87.43,2.17,1.44,2,4.75-1.19,4.47-2.43-.36-1.91,0-2.15,1,2.15,1.56,1.79-.67-1.47-.58-2.45-1.24-1.56-.94-2.22,1.5.52,1.66,1.72,1,.93.8-.18-1.52-1.81-2.36-2.91-.82-4.88-2.63-5.36a4.39,4.39,0,0,0-4.94,2.08Z" transform="translate(0.01 0.06)"/><path class="cls-20" d="M315.52,131.74a9.55,9.55,0,0,0-1.17-4.62l3.64,1.64c.05,1,.27,1.8,1.31,2.12l1.25-.08.94,2.13-.1,1.65,0,2.33L319.79,138,316.13,135l-.6-1.91-.58-1.12Z" transform="translate(0.01 0.06)"/><path class="cls-21" d="M315.61,128.78a3.43,3.43,0,0,1-.4-1.15l.63.16,2.15,1a4.6,4.6,0,0,0,.07.66A2.51,2.51,0,0,1,315.61,128.78Z" transform="translate(0.01 0.06)"/><path class="cls-20" d="M312.12,125.29c1.56,2.16,2.18,3.11,4.05,3.54a3.4,3.4,0,0,0,4.23-4.32c-.8-2.33-3.22-5.47-6-5a3.64,3.64,0,0,0-2.29,5.75Z" transform="translate(0.01 0.06)"/><path class="cls-22" d="M317.54,122.8a8.47,8.47,0,0,0,2,1.08,1.3,1.3,0,0,1-.81.76Z" transform="translate(0.01 0.06)"/><path class="cls-4" d="M315.81,122.55l.05,0a.1.1,0,0,1,0,.15h0a1.22,1.22,0,0,1-1.05.44.1.1,0,0,1-.09-.12.12.12,0,0,1,.12-.09,1,1,0,0,0,.86-.37A.13.13,0,0,1,315.81,122.55Z" transform="translate(0.01 0.06)"/><path class="cls-4" d="M318.29,120.61l0,0a1,1,0,0,0-.53.77.11.11,0,0,1-.11.11h0a.11.11,0,0,1-.1-.12,1.24,1.24,0,0,1,.63-1,.11.11,0,0,1,.15,0,.11.11,0,0,1,0,.11Z" transform="translate(0.01 0.06)"/><path class="cls-4" d="M316.16,123.62c.11.19.31.27.43.2s.12-.29,0-.47-.3-.27-.42-.19S316,123.44,316.16,123.62Z" transform="translate(0.01 0.06)"/><path class="cls-4" d="M318.23,122.31c.11.18.31.27.42.2a.34.34,0,0,0,0-.47c-.11-.19-.31-.27-.42-.2A.34.34,0,0,0,318.23,122.31Z" transform="translate(0.01 0.06)"/><path class="cls-8" d="M325.85,150.48V175s-2-.27-2.28.53-.54-2.24-1.73-1.43-2.25-1.89-2.25-1.89a7.37,7.37,0,0,0,.27,3.46l-2,.7s-1.37-9.54-2.24-12.84c-.75-2.86-1.34-6.1.69-12.34Z" transform="translate(0.01 0.06)"/><path class="cls-23" d="M325.85,167.8a18.22,18.22,0,0,0-3.88.25l-1.07-6.6c1.72-.79,3.9-.06,5,.38Z" transform="translate(0.01 0.06)"/><path class="cls-8" d="M328.87,150.58a36.61,36.61,0,0,1-12.89,1s-1.29-10.43-5.26-17.38c0,0-.31-1.09,4.72-2.5a4.27,4.27,0,0,0,2.59,2l1.67,3-.34-1.75.59.4-.49-1.5s2-.54.56-3.07a6.21,6.21,0,0,1,7,5.15A124.58,124.58,0,0,1,328.87,150.58Z" transform="translate(0.01 0.06)"/><path class="cls-6" d="M328.87,150.58a36.61,36.61,0,0,1-12.89,1s-1.29-10.43-5.26-17.38c0,0-.31-1.09,4.72-2.5a4.27,4.27,0,0,0,2.59,2l1.67,3-.34-1.75.59.4-.49-1.5s2-.54.56-3.07a6.21,6.21,0,0,1,7,5.15A124.58,124.58,0,0,1,328.87,150.58Z" transform="translate(0.01 0.06)"/><path class="cls-4" d="M317.31,120s-2.28-.65-2,.45-1.95-.37-1.26,2.41a4.54,4.54,0,0,1-.76,4.26s-4.66-3.09-1.63-6.49C311.66,120.63,313.78,117.09,317.31,120Z" transform="translate(0.01 0.06)"/><path class="cls-4" d="M312.32,121.79s-2.79-.94-3.27.54S310,121.68,312.32,121.79Z" transform="translate(0.01 0.06)"/><path class="cls-4" d="M313.93,119.81s1.46-2.55,2.8-1.77S315.61,118.16,313.93,119.81Z" transform="translate(0.01 0.06)"/><path class="cls-4" d="M314.76,120.31s.85-1,1.53,0,2,1.54,1.65,2.9-.26-1-.86-1.36-.89-1.49-1.3-1.28C314.53,121.28,314.82,120.79,314.76,120.31Z" transform="translate(0.01 0.06)"/><path class="cls-21" d="M319.1,122.55s.16.68-.66.43C318.44,123,319,123,319.1,122.55Z" transform="translate(0.01 0.06)"/><path class="cls-21" d="M317.31,123.75a.78.78,0,0,1-1.1.52S317.27,125,317.31,123.75Z" transform="translate(0.01 0.06)"/><path class="cls-21" d="M314.83,126.06s1-.61,1.85,1.26C316.68,127.32,315.83,126.12,314.83,126.06Z" transform="translate(0.01 0.06)"/><path class="cls-21" d="M319,126.87s1.09,1.36-.73,1.53A1,1,0,0,0,319,126.87Z" transform="translate(0.01 0.06)"/><path class="cls-21" d="M320,124.49a2,2,0,0,0,.09,2A4.92,4.92,0,0,1,320,124.49Z" transform="translate(0.01 0.06)"/><path class="cls-4" d="M324.76,160.8l-.09,1.26c0,.2-.33.2-.32,0l.09-1.26c0-.21.34-.21.32,0Z" transform="translate(0.01 0.06)"/><path class="cls-4" d="M322.27,160.46l.39.33.16-.3c.1-.18.38,0,.28.17l-.19.35.35.3c.16.14-.07.37-.23.23l-.28-.24-.21.37c-.1.18-.38,0-.28-.17l.24-.42-.46-.39C321.88,160.55,322.11,160.32,322.27,160.46Z" transform="translate(0.01 0.06)"/><path class="cls-4" d="M321.86,164l-1.23.23c-.21,0-.3-.28-.09-.31l1.24-.23c.2,0,.29.28.08.31Z" transform="translate(0.01 0.06)"/><path class="cls-8" d="M328.78,149.37c-1.63.29-4,.62-4,.62l-.72-5.74a25.48,25.48,0,0,0,4.18-.69C328.48,146,328.68,148.1,328.78,149.37Z" transform="translate(0.01 0.06)"/><path class="cls-4" d="M324.18,148.42l.39.33.16-.3a.16.16,0,0,1,.28.16l-.19.36.35.3c.15.14-.08.36-.23.23l-.28-.24-.21.36c-.1.19-.38,0-.28-.16l.24-.42-.46-.39C323.79,148.51,324,148.28,324.18,148.42Z" transform="translate(0.01 0.06)"/><path class="cls-4" d="M324.9,143.32l.48,1.15c.08.19-.2.35-.28.15l-.49-1.15c-.08-.19.21-.35.29-.15Z" transform="translate(0.01 0.06)"/><path class="cls-4" d="M327.24,142.91c.05.41.09.83.14,1.25,0,.2-.29.27-.32.06,0-.41-.09-.83-.14-1.25,0-.2.29-.27.32-.06Z" transform="translate(0.01 0.06)"/><path class="cls-4" d="M328.12,148.87v1.25c0,.21-.32.24-.32,0v-1.26c0-.2.32-.23.32,0Z" transform="translate(0.01 0.06)"/><path class="cls-4" d="M326.56,149.34c0,.42,0,.84,0,1.26,0,.21-.32.23-.32,0,0-.42,0-.84,0-1.26,0-.21.33-.23.32,0Z" transform="translate(0.01 0.06)"/><path class="cls-4" d="M324.88,146.82l-1.23.22c-.21,0-.29-.27-.09-.31l1.24-.22c.2,0,.29.27.08.31Z" transform="translate(0.01 0.06)"/><path class="cls-4" d="M322.44,166.73l-1.32.33c-.2.05-.29-.26-.09-.31l1.33-.34a.17.17,0,0,1,.08.32Z" transform="translate(0.01 0.06)"/><path class="cls-4" d="M324.38,167.09v1.28a.16.16,0,0,1-.32,0v-1.28a.16.16,0,0,1,.32,0Z" transform="translate(0.01 0.06)"/><path class="cls-12" d="M313.08,136l1.63,1.13a9.49,9.49,0,0,1-.46,6.08h0a48,48,0,0,0-1.93-5.71Z" transform="translate(0.01 0.06)"/><path class="cls-4" d="M329.24,139.11l1.82-3.81.61.42-1.3,2.47a130.26,130.26,0,0,1,24.22-15.39l2.5-2.5.86-1.71.27-.09-.68,1.84-1.71,1.86a111,111,0,0,1,21.89-8.06l-.16.92c-1.23.3-13.58,2.92-29.31,12.1,1,0,2.74-.06,2.74-.06l1.13-.89.17.18-1.07.86,1.17.49-.07.25-1.21-.5h-3.43a129.15,129.15,0,0,0-26.61,20.88l-.92-.92A122.24,122.24,0,0,1,329.24,139.11Z" transform="translate(0.01 0.06)"/><path class="cls-16" d="M329.24,139.11l1.82-3.81.61.42-1.3,2.47a130.26,130.26,0,0,1,24.22-15.39l2.5-2.5.86-1.71.27-.09-.68,1.84-1.71,1.86a111,111,0,0,1,21.89-8.06l-.16.92c-1.23.3-13.58,2.92-29.31,12.1,1,0,2.74-.06,2.74-.06l1.13-.89.17.18-1.07.86,1.17.49-.07.25-1.21-.5h-3.43a129.15,129.15,0,0,0-26.61,20.88l-.92-.92A122.24,122.24,0,0,1,329.24,139.11Z" transform="translate(0.01 0.06)"/><path class="cls-20" d="M314.08,136.48l-2.26,6.79,6.6,1.9s2.61-3.44,3.79-3.12c.77.21,1.36,2.25,1.1,3-.19.56-1.47,1-2,1.26a12.86,12.86,0,0,1-2.94,1c-2.76.34-10.83-.41-10.69-3s4-10.3,4-10.3Z" transform="translate(0.01 0.06)"/><path class="cls-8" d="M311.13,133.56s-1.47,1-3.09,6.13l.7.53.47-.77.27.44,1.42-1.39-1,2.43,1.86.9.8-.57v.87l.54.18S317.83,135.54,311.13,133.56Z" transform="translate(0.01 0.06)"/><path class="cls-6" d="M311.13,133.56s-1.47,1-3.09,6.13l.7.53.47-.77.27.44,1.42-1.39-1,2.43,1.86.9.8-.57v.87l.54.18S317.83,135.54,311.13,133.56Z" transform="translate(0.01 0.06)"/><path class="cls-12" d="M309.25,145.31c.19-.68-.8-.29-.93-.6s.72-.58.51-1.15c-.12-.32-.62-.27-1-.17a5.73,5.73,0,0,0-.13.9c0,.67.48,1.22,1.32,1.66A3.16,3.16,0,0,0,309.25,145.31Z" transform="translate(0.01 0.06)"/><path class="cls-8" d="M315.78,151.84s1.63.89,1.32.22c0,0,1.78.86,1.34.16,0,0,1.44.61,1.23.09,0,0,1.32.49,1.18,0,0,0,1.46.46,1.21,0,0,0,1.7.46,1.33-.1,0,0,1.76.32,1.4-.19,0,0,1.59.24,1.27-.26,0,0,1.63.06,1.31-.36,0,0,1.28,0,1.08-.4,0,0,1.22,0,1.06-.86s-.67-.47-1.11-.07c0,0-1.23.15-1.13.49,0,0-1.9.06-1.59.48,0,0-1.47-.11-1.25.23,0,0-1.63-.21-1.31.14,0,0-1.65-.36-1.31.05,0,0-1.58-.39-1.25,0,0,0-1.5-.47-1.28-.1,0,0-1.38-.52-1.15-.13,0,0-1.64-.7-1.21-.2,0,0-1.37-.75-1.39-.16A1.84,1.84,0,0,0,315.78,151.84Z" transform="translate(0.01 0.06)"/><path class="cls-15" d="M315.78,151.84s1.63.89,1.32.22c0,0,1.78.86,1.34.16,0,0,1.44.61,1.23.09,0,0,1.32.49,1.18,0,0,0,1.46.46,1.21,0,0,0,1.7.46,1.33-.1,0,0,1.76.32,1.4-.19,0,0,1.59.24,1.27-.26,0,0,1.63.06,1.31-.36,0,0,1.28,0,1.08-.4,0,0,1.22,0,1.06-.86s-.67-.47-1.11-.07c0,0-1.23.15-1.13.49,0,0-1.9.06-1.59.48,0,0-1.47-.11-1.25.23,0,0-1.63-.21-1.31.14,0,0-1.65-.36-1.31.05,0,0-1.58-.39-1.25,0,0,0-1.5-.47-1.28-.1,0,0-1.38-.52-1.15-.13,0,0-1.64-.7-1.21-.2,0,0-1.37-.75-1.39-.16A1.84,1.84,0,0,0,315.78,151.84Z" transform="translate(0.01 0.06)"/><path class="cls-16" d="M318.13,151.22c-.23-.39,1.15.13,1.15.13-.22-.37,1.28.1,1.28.1-.33-.37,1.25,0,1.25,0-.34-.41,1.31-.05,1.31-.05-.32-.35,1.31-.14,1.31-.14-.22-.34,1.25-.23,1.25-.23-.31-.42,1.59-.48,1.59-.48-.1-.34,1.13-.49,1.13-.49.44-.4,1-.78,1.11.07a.49.49,0,0,1,0,.24c-.16-.8-.66-.43-1.1,0,0,0-1.22.15-1.13.49,0,0-1.89.06-1.59.48,0,0-1.46-.11-1.24.23,0,0-1.64-.21-1.32.14,0,0-1.64-.36-1.31.05,0,0-1.58-.39-1.25,0,0,0-1.5-.47-1.28-.1,0,0-1.37-.52-1.14-.13,0,0-1.65-.7-1.21-.2,0,0-1.38-.75-1.4-.16a2.35,2.35,0,0,1,0-.27c0-.59,1.39.16,1.39.16C316.49,150.52,318.13,151.22,318.13,151.22Z" transform="translate(0.01 0.06)"/><path class="cls-8" d="M315.62,153.27s1.58,1,1.31.31c0,0,1.73,1,1.33.26,0,0,1.41.7,1.23.17,0,0,1.3.58,1.19.12,0,0,1.43.56,1.21.05,0,0,1.68.58,1.35,0,0,0,1.74.44,1.41-.09,0,0,1.58.35,1.29-.18,0,0,1.64.17,1.35-.28,0,0,1.28,0,1.1-.32,0,0,1.23.08,1.13-.79s-.65-.52-1.11-.15c0,0-1.24.07-1.17.42,0,0-1.91-.07-1.63.37,0,0-1.46-.21-1.26.15,0,0-1.63-.33-1.34,0,0,0-1.62-.48-1.31,0,0,0-1.56-.5-1.25-.11,0,0-1.48-.57-1.28-.18,0,0-1.35-.62-1.14-.21,0,0-1.6-.82-1.2-.29,0,0-1.34-.84-1.39-.25A1.77,1.77,0,0,0,315.62,153.27Z" transform="translate(0.01 0.06)"/><path class="cls-15" d="M315.62,153.27s1.58,1,1.31.31c0,0,1.73,1,1.33.26,0,0,1.41.7,1.23.17,0,0,1.3.58,1.19.12,0,0,1.43.56,1.21.05,0,0,1.68.58,1.35,0,0,0,1.74.44,1.41-.09,0,0,1.58.35,1.29-.18,0,0,1.64.17,1.35-.28,0,0,1.28,0,1.1-.32,0,0,1.23.08,1.13-.79s-.65-.52-1.11-.15c0,0-1.24.07-1.17.42,0,0-1.91-.07-1.63.37,0,0-1.46-.21-1.26.15,0,0-1.63-.33-1.34,0,0,0-1.62-.48-1.31,0,0,0-1.56-.5-1.25-.11,0,0-1.48-.57-1.28-.18,0,0-1.35-.62-1.14-.21,0,0-1.6-.82-1.2-.29,0,0-1.34-.84-1.39-.25A1.77,1.77,0,0,0,315.62,153.27Z" transform="translate(0.01 0.06)"/><path class="cls-16" d="M318,152.81c-.21-.41,1.14.21,1.14.21-.2-.39,1.28.18,1.28.18-.31-.39,1.25.11,1.25.11-.31-.44,1.31,0,1.31,0-.29-.38,1.34,0,1.34,0-.2-.36,1.26-.15,1.26-.15-.28-.44,1.63-.37,1.63-.37-.07-.35,1.17-.42,1.17-.42.46-.37,1-.72,1.11.15a.92.92,0,0,1,0,.24c-.12-.82-.65-.48-1.11-.11,0,0-1.24.06-1.16.41,0,0-1.91-.07-1.63.37,0,0-1.47-.21-1.27.15,0,0-1.63-.33-1.33.05,0,0-1.62-.48-1.31,0,0,0-1.57-.5-1.26-.11,0,0-1.47-.57-1.28-.18,0,0-1.34-.62-1.14-.21,0,0-1.6-.82-1.2-.28,0,0-1.33-.85-1.39-.26a2.62,2.62,0,0,1,0-.27c.05-.59,1.39.25,1.39.25C316.43,152,318,152.81,318,152.81Z" transform="translate(0.01 0.06)"/><path class="cls-20" d="M312.72,127.41a2,2,0,0,0,1.41.47c.68-.06.79-.72.4-1.24s-1.12-1-1.71-.7a.88.88,0,0,0-.33,1.2A.85.85,0,0,0,312.72,127.41Z" transform="translate(0.01 0.06)"/><path class="cls-12" d="M319.28,188.32c.51-1.22,2-4.73,3-4.38s-5,12.95-5.6,12.7S318.44,190.33,319.28,188.32Z" transform="translate(0.01 0.06)"/><path class="cls-12" d="M321.08,193.35s-3.17,4.12-3.3,5.71S321.57,194.05,321.08,193.35Z" transform="translate(0.01 0.06)"/><path class="cls-12" d="M319.26,199.05s-1.84,2.38-1.91,3.3S319.54,199.45,319.26,199.05Z" transform="translate(0.01 0.06)"/><path class="cls-4" d="M376.41,114.19c-.11.59-.22,1.18-.32,1.76,0,.24-.41.14-.37-.1.11-.58.21-1.17.32-1.76,0-.24.41-.14.37.1Z" transform="translate(0.01 0.06)"/><path class="cls-4" d="M373.72,114.93c.23.42.46.84.7,1.26a.19.19,0,0,1-.33.19c-.24-.42-.47-.84-.7-1.26a.19.19,0,0,1,.33-.19Z" transform="translate(0.01 0.06)"/><path class="cls-4" d="M372.57,115.32l.3,1.27c.05.24-.31.34-.37.1-.1-.42-.2-.84-.29-1.27-.06-.24.31-.34.36-.1Z" transform="translate(0.01 0.06)"/><path class="cls-4" d="M371.64,115.6l.26,1.29c0,.24-.32.34-.37.1l-.26-1.29c0-.24.32-.34.37-.1Z" transform="translate(0.01 0.06)"/><path class="cls-4" d="M371,116c.09.43.17.86.26,1.29,0,.23-.32.34-.37.1-.08-.43-.17-.86-.25-1.29-.05-.24.32-.34.36-.1Z" transform="translate(0.01 0.06)"/><path class="cls-4" d="M376.41,115l13.77,40.46,21.93,64.45,5,14.73a.19.19,0,0,1-.36.11L403,194.25Q392,162,381.05,129.81l-5-14.74c-.08-.23.29-.33.37-.1Z" transform="translate(0.01 0.06)"/><path class="cls-4" d="M318.63,124.88c.22-.1.76-.7.95.15s.45,1.92.09,1.73c0,0,0,1.26-.31.77,0,0-.12.89-.73.21,0,0-.09.69-1-.11,0,0-.12.83-.77,0s-1.65-2.3-.66-2.47A16.55,16.55,0,0,0,318.63,124.88Z" transform="translate(0.01 0.06)"/><path class="cls-9" d="M318.63,124.88c.22-.1.76-.7.95.15s.45,1.92.09,1.73c0,0,0,1.26-.31.77,0,0-.12.89-.73.21,0,0-.09.69-1-.11,0,0-.12.83-.77,0s-1.65-2.3-.66-2.47A16.55,16.55,0,0,0,318.63,124.88Z" transform="translate(0.01 0.06)"/><path class="cls-20" d="M324,136.29c0-.29-.08-1-.65-1s-.68.93-.43,1.86S324.19,139.3,324,136.29Z" transform="translate(0.01 0.06)"/><path class="cls-20" d="M325.22,139.85a1.48,1.48,0,0,0,0-1.64C324.62,137.52,324.62,140.79,325.22,139.85Z" transform="translate(0.01 0.06)"/><path class="cls-4" d="M316.48,126.55a19.33,19.33,0,0,0,3.17-.63c-.34-.56-.9-1-2.09-.65A1.24,1.24,0,0,0,316.48,126.55Z" transform="translate(0.01 0.06)"/><path class="cls-18" d="M319.07,125.54h-.36a.85.85,0,0,0,.26-.24,2,2,0,0,0-1.41,0,1.56,1.56,0,0,0-.78.44,1.86,1.86,0,0,0,.37.1,2.25,2.25,0,0,0-.21.12c-.19.09-.2.39-.22.6a26.53,26.53,0,0,0,2.83-.58A.83.83,0,0,0,319.07,125.54Z" transform="translate(0.01 0.06)"/></svg>