<svg id="OBJECTS" xmlns="http://www.w3.org/2000/svg" viewBox="0 0 152.74 175.42"><defs><style>.cls-1{fill:#f19c7c;}.cls-2{fill:#d88971;}.cls-3{fill:#5d8584;}.cls-4{fill:#7badaa;}.cls-5{fill:#b26e59;}.cls-6{fill:#fff;}.cls-7,.cls-9{fill:#352c38;}.cls-8{fill:#fddec0;}.cls-9{opacity:0.1;}</style></defs><title>person4</title><path class="cls-1" d="M699.25,202.78c-6-16-42.31-23.61-48.68-28.24-8.18-5.95-5.58-25.64-5.58-25.64l-13.38.35-13.37-.35s2.6,19.69-5.58,25.64c-6.37,4.63-42.73,12.26-48.68,28.24a174.64,174.64,0,0,0-8.18,30.1H707.43A174.64,174.64,0,0,0,699.25,202.78Z" transform="translate(-555.8 -57.47)"/><path class="cls-2" d="M615.76,170.87c6.26-.64,12.56-1.91,18-5a61.56,61.56,0,0,0,10.87-7.8,61.6,61.6,0,0,1,.35-9.21l-13.38.35-13.37-.35S620.09,162.91,615.76,170.87Z" transform="translate(-555.8 -57.47)"/><path class="cls-3" d="M700.31,202.56c-5.8-15.56-40.24-23.27-48.31-28a44.82,44.82,0,0,1-22.54,5.89,45.45,45.45,0,0,1-20-4.51c-11.31,4.82-40.19,12.47-45.45,26.6a176.4,176.4,0,0,0-8.24,30.32H708.54A175.77,175.77,0,0,0,700.31,202.56Z" transform="translate(-555.8 -57.47)"/><path class="cls-4" d="M609.49,176s4.87-3.16,6-8.05l32.22-1.55s1.11,6.44,5.56,8.89C653.25,175.25,629.73,188.68,609.49,176Z" transform="translate(-555.8 -57.47)"/><path class="cls-2" d="M609.15,118.19c-2.16-6.7-7.28-5.15-7.76-5s-5.79.85-4.87,7.83,5,10.83,8.81,9.71C609.27,130.12,611.32,124.93,609.15,118.19Z" transform="translate(-555.8 -57.47)"/><path class="cls-2" d="M653.41,118.19c2.16-6.7,7.28-5.15,7.76-5s5.79.85,4.87,7.83-5,10.83-8.81,9.71C653.29,130.12,651.24,124.93,653.41,118.19Z" transform="translate(-555.8 -57.47)"/><path class="cls-1" d="M657.87,107.65c-2.68-29.39-25-27.75-27.13-27.52-2.1-.23-24.44-1.87-27.12,27.52-2.7,29.56,10.47,48.87,27.12,47.8C647.4,156.52,660.56,137.21,657.87,107.65Z" transform="translate(-555.8 -57.47)"/><path class="cls-5" d="M633.94,117.68c.16.47.28.95.41,1.43s.25,1,.36,1.43c.22,1,.41,1.92.58,2.89s.32,1.93.44,2.9.23,2,.31,2.93l0,.25-.15.14q-.88.75-1.8,1.47c-.63.47-1.23,1-1.88,1.4.47-.63,1-1.2,1.49-1.81s1-1.15,1.57-1.71l-.13.38c-.19-1-.37-1.92-.52-2.89s-.27-1.94-.39-2.92-.2-1.95-.25-2.93c0-.49-.06-1-.06-1.48S633.92,118.18,633.94,117.68Z" transform="translate(-555.8 -57.47)"/><path class="cls-6" d="M617.81,136.84l26.51-.28S633.72,147,617.81,136.84Z" transform="translate(-555.8 -57.47)"/><path class="cls-5" d="M624.61,142.17l.77.19a17.9,17.9,0,0,0,2,.51c.41.08.86.15,1.32.25a11.52,11.52,0,0,0,1.49.16,8.5,8.5,0,0,0,1.6.07c.54,0,1.1,0,1.64-.06l1.62-.25a9.4,9.4,0,0,0,1.54-.41,7.4,7.4,0,0,0,1.42-.48l1.24-.55a5.94,5.94,0,0,0,1-.54l.78-.45c.43-.26.69-.39.69-.39s-.19.21-.56.56l-.67.62a4.57,4.57,0,0,1-.93.76c-.36.23-.77.49-1.21.74a6,6,0,0,1-1.45.66l-.79.3-.41.15-.42.08-1.75.31c-.59,0-1.18,0-1.77,0a7.81,7.81,0,0,1-1.69-.18,8.28,8.28,0,0,1-1.56-.32c-.49-.15-.94-.31-1.35-.46a4.73,4.73,0,0,1-1.08-.48l-.8-.43C624.85,142.32,624.61,142.17,624.61,142.17Z" transform="translate(-555.8 -57.47)"/><path class="cls-7" d="M616.84,118.12c0,2.22.83,4,1.84,4s1.83-1.79,1.83-4-.82-4-1.83-4S616.84,115.91,616.84,118.12Z" transform="translate(-555.8 -57.47)"/><path class="cls-7" d="M642.06,118.12c0,2.22.82,4,1.83,4s1.84-1.79,1.84-4-.82-4-1.84-4S642.06,115.91,642.06,118.12Z" transform="translate(-555.8 -57.47)"/><path class="cls-7" d="M612.34,111.57a6.61,6.61,0,0,1,1.31-2.08,7.8,7.8,0,0,1,.87-.84,7.42,7.42,0,0,1,1.12-.79,6.69,6.69,0,0,1,2.92-1c.27,0,.54,0,.81,0s.54.06.8.1a5.59,5.59,0,0,1,1.49.44,6.88,6.88,0,0,1,1.22.72,5.18,5.18,0,0,1,.9.83,3.77,3.77,0,0,1,.65.79c.16.25.29.49.39.67a6.42,6.42,0,0,1,.3.6s-.23-.1-.6-.3c-.18-.1-.41-.22-.64-.37a9.2,9.2,0,0,0-.83-.41,6.45,6.45,0,0,0-1-.41,9.35,9.35,0,0,0-1.06-.34,6.88,6.88,0,0,0-1.12-.17l-.58,0-.58.05a7.73,7.73,0,0,0-1.16.17c-.38.13-.78.19-1.14.35a11.4,11.4,0,0,0-1.07.44c-.35.13-.66.31-1,.45l-.83.44-.65.35Z" transform="translate(-555.8 -57.47)"/><path class="cls-7" d="M637.73,111.57a6.61,6.61,0,0,1,1.31-2.08,7.8,7.8,0,0,1,.87-.84,7.42,7.42,0,0,1,1.12-.79,6.79,6.79,0,0,1,2.93-1l.8,0c.27,0,.54.06.81.1a5.63,5.63,0,0,1,1.48.44,6.88,6.88,0,0,1,1.22.72,4.84,4.84,0,0,1,.9.83,3.77,3.77,0,0,1,.65.79c.16.25.29.49.4.67.2.38.3.6.3.6s-.24-.1-.61-.3c-.18-.1-.41-.22-.64-.37a9.2,9.2,0,0,0-.83-.41,6.45,6.45,0,0,0-1-.41,8.75,8.75,0,0,0-1.06-.34,6.88,6.88,0,0,0-1.12-.17l-.58,0-.58.05a7.73,7.73,0,0,0-1.16.17c-.38.13-.77.19-1.14.35a11.4,11.4,0,0,0-1.07.44c-.35.13-.66.31-1,.45l-.82.44-.65.35Z" transform="translate(-555.8 -57.47)"/><path class="cls-8" d="M658,123.8c7.66-19,4.33-41.67,4.33-41.67a29.09,29.09,0,0,0-.67-17.33c0,5.67-5,12.67-5,12.67,4.34-6.67.67-20,.67-20-2.67,5-14.33,13.66-14.33,13.66l5.66-8.33c-13.33-.67-21.66,6-21.66,6l6.33-7c-18,1.67-25.33,14-25.33,14-18.34,7.67-4.34,49.33-4.34,49.33h2V109.8s6.67-3.33,6.34-20.33a71.37,71.37,0,0,0,36.66,0s-2.33,17.33,7.34,19l-.34,15.66Z" transform="translate(-555.8 -57.47)"/><path class="cls-9" d="M628.06,91.79a59.87,59.87,0,0,1-10.42-5.68,23.33,23.33,0,0,1-8.76-11.52c-.57.75-.85,1.21-.85,1.21-18.34,7.67-4.34,49.33-4.34,49.33h2V109.8s6.67-3.33,6.34-20.33A64.75,64.75,0,0,0,628.06,91.79Z" transform="translate(-555.8 -57.47)"/></svg>