<svg id="OBJECTS" xmlns="http://www.w3.org/2000/svg" xmlns:xlink="http://www.w3.org/1999/xlink" viewBox="0 0 158.99 192.67"><defs><style>.cls-1,.cls-6,.cls-7{fill:none;}.cls-2{fill:#965450;}.cls-3{fill:#76413b;}.cls-4{fill:#ffa65b;}.cls-5{clip-path:url(#clip-path);}.cls-6,.cls-7{stroke:#765e69;stroke-miterlimit:10;}.cls-6{stroke-width:1.41px;}.cls-8{fill:#352c38;}.cls-9{fill:#fff;}</style><clipPath id="clip-path" transform="translate(-379.37 -55.63)"><path class="cls-1" d="M528.86,202.56c-5.79-15.56-40.24-23.27-48.31-28A44.82,44.82,0,0,1,458,180.47,45.48,45.48,0,0,1,438,176c-11.31,4.82-40.19,12.47-45.45,26.6a175.77,175.77,0,0,0-8.23,30.32H537.09A175.77,175.77,0,0,0,528.86,202.56Z"/></clipPath></defs><title>person3</title><path class="cls-2" d="M527.8,202.78c-5.94-16-42.31-23.61-48.68-28.24-8.18-5.95-5.57-25.64-5.57-25.64l-13.38.35-13.38-.35s2.6,19.69-5.58,25.64c-6.36,4.63-42.73,12.26-48.68,28.24a174,174,0,0,0-8.17,30.1H536A174.64,174.64,0,0,0,527.8,202.78Z" transform="translate(-379.37 -55.63)"/><path class="cls-3" d="M444.31,170.87c6.26-.64,12.56-1.91,18-5a61.64,61.64,0,0,0,10.88-7.8,60,60,0,0,1,.35-9.21l-13.38.35-13.38-.35S448.64,162.91,444.31,170.87Z" transform="translate(-379.37 -55.63)"/><path class="cls-4" d="M528.86,202.56c-5.79-15.56-40.24-23.27-48.31-28A44.82,44.82,0,0,1,458,180.47,45.48,45.48,0,0,1,438,176c-11.31,4.82-40.19,12.47-45.45,26.6a175.77,175.77,0,0,0-8.23,30.32H537.09A175.77,175.77,0,0,0,528.86,202.56Z" transform="translate(-379.37 -55.63)"/><g class="cls-5"><line class="cls-6" x1="135.11" y1="120.17" x2="135.11" y2="192.67"/><line class="cls-6" x1="125.71" y1="120.17" x2="125.71" y2="192.67"/><line class="cls-6" x1="116.32" y1="120.17" x2="116.32" y2="192.67"/><line class="cls-6" x1="106.93" y1="120.17" x2="106.93" y2="192.67"/><line class="cls-6" x1="97.54" y1="120.17" x2="97.54" y2="192.67"/><line class="cls-6" x1="88.14" y1="120.17" x2="88.14" y2="192.67"/><line class="cls-6" x1="78.75" y1="120.17" x2="78.75" y2="192.67"/><line class="cls-6" x1="69.36" y1="120.17" x2="69.36" y2="192.67"/><line class="cls-6" x1="59.96" y1="120.17" x2="59.96" y2="192.67"/><line class="cls-6" x1="50.57" y1="120.17" x2="50.57" y2="192.67"/><line class="cls-6" x1="41.18" y1="120.17" x2="41.18" y2="192.67"/><line class="cls-6" x1="31.79" y1="120.17" x2="31.79" y2="192.67"/><line class="cls-6" x1="22.39" y1="120.17" x2="22.39" y2="192.67"/><line class="cls-6" x1="13" y1="120.17" x2="13" y2="192.67"/><line class="cls-6" x1="144.5" y1="120.17" x2="144.5" y2="192.67"/><line class="cls-7" y1="141.57" x2="158.99" y2="141.57"/><line class="cls-7" y1="150.96" x2="158.99" y2="150.96"/><line class="cls-7" y1="160.35" x2="158.99" y2="160.35"/><line class="cls-7" y1="169.75" x2="158.99" y2="169.75"/><line class="cls-7" y1="132.18" x2="158.99" y2="132.18"/></g><path class="cls-3" d="M437.7,118.19c-2.16-6.7-7.27-5.15-7.75-5s-5.8.85-4.88,7.83,5,10.83,8.82,9.71C437.82,130.12,439.88,124.93,437.7,118.19Z" transform="translate(-379.37 -55.63)"/><path class="cls-3" d="M482,118.19c2.16-6.7,7.28-5.15,7.76-5s5.79.85,4.87,7.83-5,10.83-8.81,9.71C481.84,130.12,479.79,124.93,482,118.19Z" transform="translate(-379.37 -55.63)"/><path class="cls-2" d="M486.42,107.65c-2.68-29.39-25-27.75-27.12-27.52-2.11-.23-24.45-1.87-27.13,27.52-2.69,29.56,10.47,48.87,27.13,47.8C476,156.52,489.12,137.21,486.42,107.65Z" transform="translate(-379.37 -55.63)"/><path class="cls-3" d="M460.78,132.52a4.73,4.73,0,0,1,.28-.55,3.64,3.64,0,0,1,.31-.51,9.6,9.6,0,0,1,.74-.92,10.57,10.57,0,0,1,.82-.82,9.11,9.11,0,0,1,.92-.72l-.14.38q-.36-2.91-.67-5.84c-.18-2-.4-3.9-.55-5.86.41,1.92.74,3.85,1.11,5.78s.68,3.86,1,5.8l0,.18-.16.21a10.63,10.63,0,0,1-.77.87c-.27.28-.57.53-.86.78a11,11,0,0,1-1,.68c-.17.1-.34.2-.53.29A4.75,4.75,0,0,1,460.78,132.52Z" transform="translate(-379.37 -55.63)"/><path class="cls-8" d="M445.4,118.12c0,2.22.82,4,1.83,4s1.84-1.79,1.84-4-.83-4-1.84-4S445.4,115.91,445.4,118.12Z" transform="translate(-379.37 -55.63)"/><path class="cls-8" d="M470.61,118.12c0,2.22.82,4,1.84,4s1.83-1.79,1.83-4-.82-4-1.83-4S470.61,115.91,470.61,118.12Z" transform="translate(-379.37 -55.63)"/><path class="cls-8" d="M440.89,111.57a6.61,6.61,0,0,1,1.31-2.08,8.77,8.77,0,0,1,.87-.84,7.42,7.42,0,0,1,1.12-.79,6.79,6.79,0,0,1,2.93-1l.8,0c.27,0,.54.06.81.1a5.63,5.63,0,0,1,1.48.44,6.88,6.88,0,0,1,1.22.72,4.84,4.84,0,0,1,.9.83,3.77,3.77,0,0,1,.65.79c.16.25.29.49.4.67.2.38.3.6.3.6s-.24-.1-.61-.3c-.18-.1-.4-.22-.64-.37a9.2,9.2,0,0,0-.83-.41,6.45,6.45,0,0,0-1-.41,8.75,8.75,0,0,0-1.06-.34,6.88,6.88,0,0,0-1.12-.17l-.57,0-.59.05a7.73,7.73,0,0,0-1.16.17c-.38.13-.77.19-1.14.35a11.4,11.4,0,0,0-1.07.44c-.35.13-.66.31-1,.45l-.82.44-.65.35Z" transform="translate(-379.37 -55.63)"/><path class="cls-8" d="M466.28,111.57a6.61,6.61,0,0,1,1.31-2.08,10,10,0,0,1,.87-.84,7.42,7.42,0,0,1,1.12-.79,6.79,6.79,0,0,1,2.93-1c.27,0,.54,0,.81,0s.53.06.8.1a5.63,5.63,0,0,1,1.48.44,6.88,6.88,0,0,1,1.22.72,5.26,5.26,0,0,1,.91.83,4,4,0,0,1,.64.79c.17.25.29.49.4.67.2.38.3.6.3.6s-.24-.1-.61-.3c-.18-.1-.4-.22-.64-.37A9.2,9.2,0,0,0,477,110a6.45,6.45,0,0,0-1-.41,8.75,8.75,0,0,0-1.06-.34,6.88,6.88,0,0,0-1.12-.17l-.57,0-.58.05a7.67,7.67,0,0,0-1.17.17c-.38.13-.77.19-1.14.35a11.4,11.4,0,0,0-1.07.44c-.35.13-.66.31-1,.45l-.83.44-.65.35Z" transform="translate(-379.37 -55.63)"/><path class="cls-9" d="M448.11,136.8l24.76-.24S462.11,146.55,448.11,136.8Z" transform="translate(-379.37 -55.63)"/><path class="cls-8" d="M430.61,90.8s-1.5,36.75,2.75,54c3.2,13,12.5,16.5,12.5,16.5s22,8.5,34.25-5.25c3.53-4,9-24.75,6.5-62l-9-3.75s1.5,18.25,6,20.5c0,0-1.32,32.62-7,36.5-4.75,3.25,3.25-15-6-14.75s-9.5.5-9.5.5-16.5-2.75-16.25,3.75,2,10.75-.25,10.75-10.5-5.25-9-39.5c0,0,4.75-1.75,4.75-13.75C440.36,78.52,430.61,90.8,430.61,90.8Z" transform="translate(-379.37 -55.63)"/><path class="cls-8" d="M439.36,88.8s7.19,9.75,15.75,9.75c4.75,0,0-8.25,0-8.25s6.75,10.5,13.75,10.25,1-10.25,1-10.25,5.25,10.75,11.75,10.25,1-11,1-11,3,11.25,9.25,9.75-1.5-11.25-1.5-11.25,5.25,5,7.5,4.75,2.25-7-5.5-10.25c0,0,7.75-.25,8-4,.28-4.25-4.75-5.75-16.25-4.5,0,0,9.5-4,7.5-7.5s-10.5,1.5-10.5,1.5,8.5-4.75,3.5-8.5c-4.1-3.08-25.5-3-38.5,12.5,0,0,27-14.25,23.75-16.25-2.3-1.41-34.59,5.81-39.5,19.5-6,16.75-1.5,26.25.44,37.66Z" transform="translate(-379.37 -55.63)"/></svg>