<svg id="OBJECTS" xmlns="http://www.w3.org/2000/svg" xmlns:xlink="http://www.w3.org/1999/xlink" viewBox="0 0 152.74 160.82"><defs><style>.cls-1,.cls-6,.cls-7{fill:none;}.cls-2{fill:#fddec0;}.cls-3{fill:#e2c6af;}.cls-4{fill:#fc6a5a;}.cls-5{clip-path:url(#clip-path);}.cls-6,.cls-7{stroke:#f99787;stroke-miterlimit:10;}.cls-6{stroke-width:3px;}.cls-8{fill:#bc7068;}.cls-9{fill:#f99787;}.cls-10{fill:#fff;}.cls-11{fill:#352c38;}</style><clipPath id="clip-path" transform="translate(-212.91 -72.06)"><path class="cls-1" d="M357.41,202.56c-5.79-15.57-40.24-23.27-48.31-28-.54.32-1.11.61-1.68.9l-17.73,20-24.51-18.93c-12.13,4.85-39,12.44-44,26a175.77,175.77,0,0,0-8.23,30.32H365.64A175.77,175.77,0,0,0,357.41,202.56Z"/></clipPath></defs><title>person2</title><path class="cls-2" d="M356.35,202.78c-5.94-16-42.31-23.61-48.68-28.24-8.17-5.95-5.57-25.64-5.57-25.64l-13.38.35-13.38-.35s2.6,19.69-5.57,25.64c-6.37,4.63-42.74,12.26-48.69,28.24a175.11,175.11,0,0,0-8.17,30.1H364.53A174.64,174.64,0,0,0,356.35,202.78Z" transform="translate(-212.91 -72.06)"/><path class="cls-3" d="M272.86,170.87c6.26-.64,12.56-1.91,18-5a61.27,61.27,0,0,0,10.88-7.8,60,60,0,0,1,.35-9.21l-13.38.35-13.38-.35S277.19,162.91,272.86,170.87Z" transform="translate(-212.91 -72.06)"/><path class="cls-4" d="M357.41,202.56c-5.79-15.57-40.24-23.27-48.31-28-.54.32-1.11.61-1.68.9l-17.73,20-24.51-18.93c-12.13,4.85-39,12.44-44,26a175.77,175.77,0,0,0-8.23,30.32H365.64A175.77,175.77,0,0,0,357.41,202.56Z" transform="translate(-212.91 -72.06)"/><g class="cls-5"><line class="cls-6" x1="1.12" y1="149.24" x2="152.12" y2="149.24"/><line class="cls-7" x1="1.12" y1="153.91" x2="152.12" y2="153.91"/></g><polygon class="cls-8" points="71.12 112.41 76.79 123.41 80.79 111.07 83.79 117.07 76.45 124.74 68.12 117.41 71.12 112.41"/><polygon class="cls-9" points="50.79 104.74 65.79 126.41 71.12 112.41 55.45 96.74 50.79 104.74"/><polygon class="cls-9" points="100.12 103.07 86.12 125.07 80.79 111.07 96.45 95.41 100.12 103.07"/><path class="cls-3" d="M266.25,118.19c-2.16-6.7-7.27-5.15-7.75-5s-5.79.85-4.88,7.83,5,10.83,8.82,9.71C266.37,130.12,268.43,124.93,266.25,118.19Z" transform="translate(-212.91 -72.06)"/><path class="cls-3" d="M308.18,117.52c2.16-6.7,7.28-5.15,7.76-5s5.79.84,4.87,7.82-5,10.83-8.81,9.72C308.06,129.45,306,124.27,308.18,117.52Z" transform="translate(-212.91 -72.06)"/><path class="cls-2" d="M315,107.65c-2.67-29.39-25-27.75-27.12-27.52-2.11-.23-24.45-1.87-27.13,27.52-2.69,29.56,10.48,48.87,27.13,47.8C304.5,156.52,317.67,137.21,315,107.65Z" transform="translate(-212.91 -72.06)"/><path class="cls-3" d="M291,117.68a20.42,20.42,0,0,1,1,2.82c.15.47.26,1,.39,1.43s.21,1,.32,1.44c.2,1,.36,1.93.48,2.9s.2,2,.27,2.93l0,.51-.29.22a23.82,23.82,0,0,1-3.95,2.59,23.83,23.83,0,0,1,2.8-3.81l-.26.73c-.21-1-.42-1.92-.56-2.89s-.28-1.94-.35-2.92c0-.49-.09-1-.1-1.47s0-1,0-1.48A19.08,19.08,0,0,1,291,117.68Z" transform="translate(-212.91 -72.06)"/><path class="cls-10" d="M274.91,136.84l26.51-.28S290.82,147,274.91,136.84Z" transform="translate(-212.91 -72.06)"/><path class="cls-3" d="M281.71,142.17s.28.06.77.2a17,17,0,0,0,2,.53l1.33.26a11.29,11.29,0,0,0,1.49.17,9.43,9.43,0,0,0,1.6.08c.55,0,1.1,0,1.65-.06l1.63-.26a9.4,9.4,0,0,0,1.54-.41,8.16,8.16,0,0,0,1.42-.49c.43-.21.85-.39,1.24-.56a6.74,6.74,0,0,0,1-.55l.77-.47.69-.39-.57.55-.68.62a4.88,4.88,0,0,1-.93.74c-.37.23-.77.48-1.21.73a6.39,6.39,0,0,1-1.45.65l-.79.3-.41.15-.42.07-1.74.32c-.59,0-1.18,0-1.76,0a7.75,7.75,0,0,1-1.69-.17,9.17,9.17,0,0,1-1.56-.31c-.48-.15-.94-.3-1.35-.45a5.16,5.16,0,0,1-1.08-.47l-.81-.42C282,142.32,281.71,142.17,281.71,142.17Z" transform="translate(-212.91 -72.06)"/><ellipse class="cls-11" cx="62.88" cy="46.06" rx="1.83" ry="4.01"/><path class="cls-11" d="M299.16,118.12c0,2.22.82,4,1.84,4s1.83-1.79,1.83-4-.82-4-1.83-4S299.16,115.91,299.16,118.12Z" transform="translate(-212.91 -72.06)"/><path class="cls-11" d="M269.44,111.57a6.61,6.61,0,0,1,1.31-2.08,10,10,0,0,1,.87-.84,7.42,7.42,0,0,1,1.12-.79,6.79,6.79,0,0,1,2.93-1c.27,0,.54,0,.81,0s.53.06.8.1a5.63,5.63,0,0,1,1.48.44,6.88,6.88,0,0,1,1.22.72,5.26,5.26,0,0,1,.91.83,4,4,0,0,1,.64.79c.17.25.29.49.4.67.2.38.3.6.3.6s-.24-.1-.61-.3c-.18-.1-.4-.22-.64-.37a9.2,9.2,0,0,0-.83-.41,6.45,6.45,0,0,0-1-.41,8.75,8.75,0,0,0-1.06-.34A6.88,6.88,0,0,0,277,109l-.57,0-.58.05a7.67,7.67,0,0,0-1.17.17c-.38.13-.77.19-1.14.35a11.4,11.4,0,0,0-1.07.44c-.35.13-.66.31-1,.45l-.83.44-.65.35Z" transform="translate(-212.91 -72.06)"/><path class="cls-11" d="M294.84,111.57a6.39,6.39,0,0,1,1.31-2.08,8.62,8.62,0,0,1,.86-.84,7.52,7.52,0,0,1,1.13-.79,7.72,7.72,0,0,1,1.36-.63,8,8,0,0,1,1.56-.32c.27,0,.54,0,.81,0s.53.06.8.1a5.52,5.52,0,0,1,1.48.44,6.54,6.54,0,0,1,1.22.72,5.26,5.26,0,0,1,.91.83,4,4,0,0,1,.64.79c.17.25.29.49.4.67.2.38.3.6.3.6s-.23-.1-.6-.3c-.19-.1-.41-.22-.65-.37s-.53-.26-.82-.41a7.49,7.49,0,0,0-1-.41,10,10,0,0,0-1.06-.34,7.17,7.17,0,0,0-1.13-.17l-.57,0-.58.05a7.86,7.86,0,0,0-1.17.17c-.38.13-.77.19-1.13.35a10.58,10.58,0,0,0-1.08.44c-.35.13-.66.31-1,.45l-.83.44-.65.35Z" transform="translate(-212.91 -72.06)"/><path class="cls-11" d="M270,96.21s8.07,10.59,20.73,12.26l-3-4.34a36.5,36.5,0,0,0,13.67,5.34A16.5,16.5,0,0,0,299,97.13s5.66,12.34,12.33,17c0,0,2.67-8.66-.67-13.66,0,0,2.13,2.35,8.46,10,0,0,7.09-21.51-10.24-33.18s-35.83-1.14-41.83,5.19c0,0-10.68-3.6-13.13,10.68a37.15,37.15,0,0,0,2.45,20.92s3.75-2.48,3.75,5.19l.88,7.84h2.33l.33-15.66S269.63,109.21,270,96.21Z" transform="translate(-212.91 -72.06)"/><path class="cls-11" d="M312.1,126.7l2.52-.08c2.29-8.23.74-23.15.74-23.15s-7.79-15.48-4.67-3C313.27,110.78,312.38,123.49,312.1,126.7Z" transform="translate(-212.91 -72.06)"/></svg>