<svg id="OBJECTS" xmlns="http://www.w3.org/2000/svg" xmlns:xlink="http://www.w3.org/1999/xlink" viewBox="0 0 163.33 200.29"><defs><style>.cls-1,.cls-6{fill:none;}.cls-2{fill:#965450;}.cls-3{fill:#76413b;}.cls-4{fill:#5d8584;}.cls-5{clip-path:url(#clip-path);}.cls-6{stroke:#fff;stroke-miterlimit:10;stroke-width:0.89px;}.cls-7{fill:#fff;}.cls-8{fill:#352c38;}.cls-9{fill:#ffa65b;}</style><clipPath id="clip-path" transform="translate(-207.69 -244.08)"><path class="cls-1" d="M356.87,414.05c-2.18-5.85-8.41-10.59-15.76-14.48-13.13,9-31.73,14.56-52.38,14.56s-39.25-5.6-52.37-14.56c-7.36,3.89-13.58,8.63-15.76,14.48a176.4,176.4,0,0,0-8.24,30.32H365.1A175.77,175.77,0,0,0,356.87,414.05Z"/></clipPath></defs><title>person6</title><path class="cls-2" d="M355.81,414.27c-5.94-16-42.31-23.61-48.68-28.24-8.18-5.95-5.58-25.64-5.58-25.64l-13.37.35-13.38-.35s2.6,19.69-5.58,25.64c-6.37,4.63-42.73,12.26-48.68,28.24a174.64,174.64,0,0,0-8.18,30.1H364A174.64,174.64,0,0,0,355.81,414.27Z" transform="translate(-207.69 -244.08)"/><path class="cls-3" d="M272.32,382.36c6.26-.64,12.56-1.91,18-5a62,62,0,0,0,10.88-7.8,60.88,60.88,0,0,1,.34-9.21l-13.37.35-13.38-.35S276.65,374.4,272.32,382.36Z" transform="translate(-207.69 -244.08)"/><path class="cls-4" d="M356.87,414.05c-2.18-5.85-8.41-10.59-15.76-14.48-13.13,9-31.73,14.56-52.38,14.56s-39.25-5.6-52.37-14.56c-7.36,3.89-13.58,8.63-15.76,14.48a176.4,176.4,0,0,0-8.24,30.32H365.1A175.77,175.77,0,0,0,356.87,414.05Z" transform="translate(-207.69 -244.08)"/><g class="cls-5"><line class="cls-6" x1="6.67" y1="164.39" x2="154" y2="164.39"/><line class="cls-6" x1="6.67" y1="195.05" x2="158" y2="195.05"/><line class="cls-6" y1="180.18" x2="163.33" y2="180.18"/></g><path class="cls-3" d="M265.71,329.68c-2.16-6.7-7.28-5.15-7.76-5s-5.79.85-4.87,7.83,5,10.83,8.81,9.71C265.83,341.61,267.88,336.42,265.71,329.68Z" transform="translate(-207.69 -244.08)"/><path class="cls-3" d="M310,329.68c2.16-6.7,7.28-5.15,7.76-5s5.79.85,4.87,7.83-5,10.83-8.81,9.71C309.85,341.61,307.8,336.42,310,329.68Z" transform="translate(-207.69 -244.08)"/><path class="cls-2" d="M314.43,319.14c-2.68-29.39-25-27.75-27.13-27.52-2.1-.23-24.44-1.87-27.12,27.52-2.7,29.56,10.47,48.87,27.12,47.8C304,368,317.12,348.7,314.43,319.14Z" transform="translate(-207.69 -244.08)"/><path class="cls-3" d="M290.5,329.17c.16.47.28.95.41,1.43s.25.95.36,1.43c.22,1,.41,1.92.58,2.89s.32,1.93.44,2.9.23,1.95.31,2.93l0,.25-.15.13c-.59.51-1.19,1-1.8,1.48s-1.23,1-1.88,1.4c.47-.63,1-1.2,1.49-1.81s1-1.15,1.57-1.71l-.13.38c-.19-1-.37-1.92-.52-2.89s-.27-1.94-.39-2.92-.19-1.95-.25-2.93c0-.49-.06-1-.06-1.48S290.48,329.67,290.5,329.17Z" transform="translate(-207.69 -244.08)"/><path class="cls-7" d="M274.37,348.33l26.51-.28S290.28,358.49,274.37,348.33Z" transform="translate(-207.69 -244.08)"/><path class="cls-3" d="M281.17,353.66l.77.19a17.9,17.9,0,0,0,2,.51c.41.08.86.15,1.32.25a11.49,11.49,0,0,0,1.5.16,8.36,8.36,0,0,0,1.59.07c.54,0,1.1,0,1.64-.06l1.63-.25a9.56,9.56,0,0,0,1.53-.41,7.4,7.4,0,0,0,1.42-.48l1.24-.55a5.94,5.94,0,0,0,1-.54l.78-.45c.43-.26.69-.39.69-.39s-.19.21-.56.56l-.67.62a4.23,4.23,0,0,1-.93.75c-.36.24-.77.5-1.21.75a6,6,0,0,1-1.45.66l-.79.3-.41.15-.42.08-1.75.31c-.59,0-1.18,0-1.77,0a7.81,7.81,0,0,1-1.69-.18,8.28,8.28,0,0,1-1.56-.32c-.49-.15-.94-.31-1.35-.46a4.73,4.73,0,0,1-1.08-.48l-.8-.43C281.41,353.81,281.17,353.66,281.17,353.66Z" transform="translate(-207.69 -244.08)"/><path class="cls-8" d="M273.4,329.61c0,2.22.83,4,1.84,4s1.83-1.79,1.83-4-.82-4-1.83-4S273.4,327.4,273.4,329.61Z" transform="translate(-207.69 -244.08)"/><path class="cls-8" d="M298.62,329.61c0,2.22.82,4,1.83,4s1.84-1.79,1.84-4-.82-4-1.84-4S298.62,327.4,298.62,329.61Z" transform="translate(-207.69 -244.08)"/><path class="cls-8" d="M268.9,323.05a6.64,6.64,0,0,1,1.31-2.07,7.8,7.8,0,0,1,.87-.84,7.42,7.42,0,0,1,1.12-.79,8.07,8.07,0,0,1,1.36-.63,7.45,7.45,0,0,1,1.56-.32l.81,0c.27,0,.54.06.8.1a5.59,5.59,0,0,1,1.49.44,6.88,6.88,0,0,1,1.22.72,4.82,4.82,0,0,1,.9.83,3.77,3.77,0,0,1,.65.79c.16.25.29.49.39.67.21.38.31.6.31.6s-.24-.1-.61-.3c-.18-.1-.41-.22-.64-.37a7.14,7.14,0,0,0-.83-.41,7.71,7.71,0,0,0-1-.42c-.35-.09-.69-.27-1.06-.33a6.88,6.88,0,0,0-1.12-.17l-.58,0-.58,0a7.73,7.73,0,0,0-1.16.17c-.38.13-.78.19-1.14.35a11.4,11.4,0,0,0-1.07.44c-.35.13-.66.31-1,.45l-.82.43-.66.36Z" transform="translate(-207.69 -244.08)"/><path class="cls-8" d="M294.29,323.05A6.64,6.64,0,0,1,295.6,321a8.77,8.77,0,0,1,.87-.84,7.42,7.42,0,0,1,1.12-.79,7.83,7.83,0,0,1,1.37-.63,7.2,7.2,0,0,1,1.56-.32l.8,0c.27,0,.54.06.81.1a5.63,5.63,0,0,1,1.48.44,6.88,6.88,0,0,1,1.22.72,4.53,4.53,0,0,1,.9.83,3.77,3.77,0,0,1,.65.79c.16.25.29.49.4.67.2.38.3.6.3.6s-.24-.1-.61-.3c-.18-.1-.4-.22-.64-.37a7.14,7.14,0,0,0-.83-.41,7.71,7.71,0,0,0-1-.42,10.94,10.94,0,0,0-1.06-.33,6.88,6.88,0,0,0-1.12-.17l-.57,0-.59,0a7.73,7.73,0,0,0-1.16.17c-.38.13-.77.19-1.14.35a11.4,11.4,0,0,0-1.07.44c-.35.13-.66.31-1,.45l-.82.43-.65.36Z" transform="translate(-207.69 -244.08)"/><path class="cls-8" d="M274.37,286.27s-16.33-5.6-13.53-13.06,15.39,2.8,15.39,2.8-21-18.2-10.73-23.33,21.93,20.06,21.93,20.06-20.53-25.19-1.87-28.45,5.13,33.58,5.13,33.58,6.53-26.12,17.26-22.39c14.22,5-11.66,25.66-11.66,25.66s15.86-13.53,19.12-10.73-4.53,9.85-13.06,15.86C289.76,295.13,289.76,294.66,274.37,286.27Z" transform="translate(-207.69 -244.08)"/><ellipse class="cls-9" cx="79.67" cy="44.72" rx="13" ry="8.5"/><path class="cls-8" d="M286.74,300.7s.12,12.1-24.38,19.1c0,0,1.5,18.5-2,17.5S241.08,284,287.12,285.63Z" transform="translate(-207.69 -244.08)"/><path class="cls-8" d="M286.74,300.7s.4,12.1,24.9,19.1c0,0-1.5,18.5,2,17.5s18.83-52.44-26.52-51.67Z" transform="translate(-207.69 -244.08)"/><path class="cls-8" d="M294.27,311.64c-7.58-9-8.66-15.18-5.51-25.18a8.25,8.25,0,0,1-.92-.22c-3.39,8.35-6.1,22.35,8.25,31C296.09,317.26,303.51,322.64,294.27,311.64Z" transform="translate(-207.69 -244.08)"/><path class="cls-8" d="M287.86,310.8c-3.63-8.94-2.92-14,2.05-21a4.29,4.29,0,0,1-.66-.4c-4.74,5.65-10.38,15.87-1.39,26.23C287.86,315.63,292.28,321.69,287.86,310.8Z" transform="translate(-207.69 -244.08)"/></svg>