<svg id="OBJECTS" xmlns="http://www.w3.org/2000/svg" xmlns:xlink="http://www.w3.org/1999/xlink" viewBox="0 0 156.95 165.4"><defs><style>.cls-1{fill:none;}.cls-2{fill:#edcfb7;}.cls-3{fill:#f19c7c;}.cls-4{fill:#d88971;}.cls-5{fill:#765e69;}.cls-6{clip-path:url(#clip-path);}.cls-7{fill:#ffa65b;}.cls-8{fill:#fddec0;}.cls-9{fill:#b26e59;}.cls-10{fill:#fff;}.cls-11{fill:#352c38;}</style><clipPath id="clip-path" transform="translate(-36.62 -278.97)"><path class="cls-1" d="M185.33,414.05c-5.4-14.52-35.71-22.19-46.32-27l.17-.1c-4.64-2.55-5.8-9.28-5.8-9.28l-33.64,1.62c-1.16,5.11-6.25,8.41-6.25,8.41l.15.09c-11.84,4.84-39.44,12.45-44.57,26.24a176.4,176.4,0,0,0-8.24,30.32H193.57A176.4,176.4,0,0,0,185.33,414.05Z"/></clipPath></defs><title>person5</title><path class="cls-2" d="M108.69,376.47s-7.66,2-13.33-2l1,2.66s-12-5.33-13-27,7-21.33,7-21.33S112.36,358.8,108.69,376.47Z" transform="translate(-36.62 -278.97)"/><path class="cls-2" d="M159.36,342.8s4.5,19-12.5,27v-6.5s-4,12-21,14-8.5-23.5-8.5-23.5l8.5-22,33.5,9" transform="translate(-36.62 -278.97)"/><path class="cls-3" d="M184.28,414.27c-5.95-16-42.32-23.61-48.69-28.24-8.17-5.95-5.57-25.64-5.57-25.64l-13.38.35-13.38-.35s2.6,19.69-5.57,25.64C91.32,390.66,55,398.29,49,414.27a174.64,174.64,0,0,0-8.18,30.1H192.45A175.11,175.11,0,0,0,184.28,414.27Z" transform="translate(-36.62 -278.97)"/><path class="cls-4" d="M100.78,382.36c6.27-.64,12.56-1.91,18-5a61.56,61.56,0,0,0,10.87-7.8,60,60,0,0,1,.35-9.21l-13.38.35-13.38-.35S105.11,374.4,100.78,382.36Z" transform="translate(-36.62 -278.97)"/><path class="cls-5" d="M185.33,414.05c-5.4-14.52-35.71-22.19-46.32-27l.17-.1c-4.64-2.55-5.8-9.28-5.8-9.28l-33.64,1.62c-1.16,5.11-6.25,8.41-6.25,8.41l.15.09c-11.84,4.84-39.44,12.45-44.57,26.24a176.4,176.4,0,0,0-8.24,30.32H193.57A176.4,176.4,0,0,0,185.33,414.05Z" transform="translate(-36.62 -278.97)"/><g class="cls-6"><path class="cls-7" d="M155,382.59l4,3.84c.28.27,1,.05,1.27-.18l4.78-4.62c.6-.58-.85-.48-1.16-.18l-4.79,4.62,1.28-.19-4-3.85c-.34-.33-1.73.22-1.38.56Z" transform="translate(-36.62 -278.97)"/><path class="cls-7" d="M138.13,382.59l4,3.84c.28.27,1,.05,1.27-.18l4.78-4.62c.6-.58-.85-.48-1.16-.18l-4.79,4.62,1.28-.19-4-3.85c-.34-.33-1.73.22-1.38.56Z" transform="translate(-36.62 -278.97)"/><path class="cls-7" d="M121.22,382.59l4,3.84c.28.27,1,.05,1.27-.18l4.78-4.62c.6-.58-.85-.48-1.16-.18l-4.79,4.62,1.28-.19-4-3.85c-.34-.33-1.73.22-1.38.56Z" transform="translate(-36.62 -278.97)"/><path class="cls-7" d="M104.31,382.59l4,3.84c.28.27,1,.05,1.27-.18l4.78-4.62c.6-.58-.85-.48-1.16-.18l-4.79,4.62,1.28-.19-4-3.85c-.34-.33-1.73.22-1.38.56Z" transform="translate(-36.62 -278.97)"/><path class="cls-7" d="M87.4,382.59l4,3.84c.28.27,1,.05,1.27-.18l4.78-4.62c.6-.58-.85-.48-1.16-.18l-4.79,4.62,1.27-.19-4-3.85c-.34-.33-1.73.22-1.38.56Z" transform="translate(-36.62 -278.97)"/><path class="cls-7" d="M70.49,382.59l4,3.84c.28.27,1,.05,1.27-.18l4.78-4.62c.6-.58-.86-.48-1.16-.18l-4.79,4.62,1.27-.19-4-3.85c-.34-.33-1.73.22-1.38.56Z" transform="translate(-36.62 -278.97)"/><path class="cls-7" d="M53.58,382.59l4,3.84c.28.27,1,.05,1.27-.18l4.78-4.62c.6-.58-.86-.48-1.17-.18l-4.78,4.62,1.27-.19L55,382c-.34-.33-1.73.22-1.38.56Z" transform="translate(-36.62 -278.97)"/><path class="cls-7" d="M36.67,382.59l4,3.84c.28.27,1,.05,1.27-.18l4.78-4.62c.6-.58-.86-.48-1.17-.18l-4.78,4.62,1.27-.19-4-3.85c-.34-.33-1.73.22-1.38.56Z" transform="translate(-36.62 -278.97)"/><path class="cls-7" d="M172,382.59l4,3.84c.28.27,1,.05,1.27-.18l4.78-4.62c.6-.58-.85-.48-1.16-.18L176,386.07l1.28-.19-4-3.85c-.34-.33-1.73.22-1.38.56Z" transform="translate(-36.62 -278.97)"/><path class="cls-7" d="M155,382.59l4,3.84c.28.27,1,.05,1.27-.18l4.78-4.62c.6-.58-.85-.48-1.16-.18l-4.79,4.62,1.28-.19-4-3.85c-.34-.33-1.73.22-1.38.56Z" transform="translate(-36.62 -278.97)"/><path class="cls-7" d="M138.13,382.59l4,3.84c.28.27,1,.05,1.27-.18l4.78-4.62c.6-.58-.85-.48-1.16-.18l-4.79,4.62,1.28-.19-4-3.85c-.34-.33-1.73.22-1.38.56Z" transform="translate(-36.62 -278.97)"/><path class="cls-7" d="M121.22,382.59l4,3.84c.28.27,1,.05,1.27-.18l4.78-4.62c.6-.58-.85-.48-1.16-.18l-4.79,4.62,1.28-.19-4-3.85c-.34-.33-1.73.22-1.38.56Z" transform="translate(-36.62 -278.97)"/><path class="cls-7" d="M104.31,382.59l4,3.84c.28.27,1,.05,1.27-.18l4.78-4.62c.6-.58-.85-.48-1.16-.18l-4.79,4.62,1.28-.19-4-3.85c-.34-.33-1.73.22-1.38.56Z" transform="translate(-36.62 -278.97)"/><path class="cls-7" d="M87.4,382.59l4,3.84c.28.27,1,.05,1.27-.18l4.78-4.62c.6-.58-.85-.48-1.16-.18l-4.79,4.62,1.27-.19-4-3.85c-.34-.33-1.73.22-1.38.56Z" transform="translate(-36.62 -278.97)"/><path class="cls-7" d="M70.49,382.59l4,3.84c.28.27,1,.05,1.27-.18l4.78-4.62c.6-.58-.86-.48-1.16-.18l-4.79,4.62,1.27-.19-4-3.85c-.34-.33-1.73.22-1.38.56Z" transform="translate(-36.62 -278.97)"/><path class="cls-7" d="M53.58,382.59l4,3.84c.28.27,1,.05,1.27-.18l4.78-4.62c.6-.58-.86-.48-1.17-.18l-4.78,4.62,1.27-.19L55,382c-.34-.33-1.73.22-1.38.56Z" transform="translate(-36.62 -278.97)"/><path class="cls-7" d="M36.67,382.59l4,3.84c.28.27,1,.05,1.27-.18l4.78-4.62c.6-.58-.86-.48-1.17-.18l-4.78,4.62,1.27-.19-4-3.85c-.34-.33-1.73.22-1.38.56Z" transform="translate(-36.62 -278.97)"/><path class="cls-7" d="M172,382.59l4,3.84c.28.27,1,.05,1.27-.18l4.78-4.62c.6-.58-.85-.48-1.16-.18L176,386.07l1.28-.19-4-3.85c-.34-.33-1.73.22-1.38.56Z" transform="translate(-36.62 -278.97)"/><path class="cls-7" d="M155,439.17l4,3.85c.28.27,1,0,1.27-.19l4.78-4.61c.6-.58-.85-.48-1.16-.18l-4.79,4.61,1.28-.19-4-3.84c-.34-.33-1.73.22-1.38.55Z" transform="translate(-36.62 -278.97)"/><path class="cls-7" d="M138.13,439.17l4,3.85c.28.27,1,0,1.27-.19l4.78-4.61c.6-.58-.85-.48-1.16-.18l-4.79,4.61,1.28-.19-4-3.84c-.34-.33-1.73.22-1.38.55Z" transform="translate(-36.62 -278.97)"/><path class="cls-7" d="M121.22,439.17l4,3.85c.28.27,1,0,1.27-.19l4.78-4.61c.6-.58-.85-.48-1.16-.18l-4.79,4.61,1.28-.19-4-3.84c-.34-.33-1.73.22-1.38.55Z" transform="translate(-36.62 -278.97)"/><path class="cls-7" d="M104.31,439.17l4,3.85c.28.27,1,0,1.27-.19l4.78-4.61c.6-.58-.85-.48-1.16-.18l-4.79,4.61,1.28-.19-4-3.84c-.34-.33-1.73.22-1.38.55Z" transform="translate(-36.62 -278.97)"/><path class="cls-7" d="M87.4,439.17l4,3.85c.28.27,1,0,1.27-.19l4.78-4.61c.6-.58-.85-.48-1.16-.18l-4.79,4.61,1.27-.19-4-3.84c-.34-.33-1.73.22-1.38.55Z" transform="translate(-36.62 -278.97)"/><path class="cls-7" d="M70.49,439.17l4,3.85c.28.27,1,0,1.27-.19l4.78-4.61c.6-.58-.86-.48-1.16-.18l-4.79,4.61,1.27-.19-4-3.84c-.34-.33-1.73.22-1.38.55Z" transform="translate(-36.62 -278.97)"/><path class="cls-7" d="M53.58,439.17l4,3.85c.28.27,1,0,1.27-.19l4.78-4.61c.6-.58-.86-.48-1.17-.18l-4.78,4.61,1.27-.19-4-3.84c-.34-.33-1.73.22-1.38.55Z" transform="translate(-36.62 -278.97)"/><path class="cls-7" d="M36.67,439.17l4,3.85c.28.27,1,0,1.27-.19l4.78-4.61c.6-.58-.86-.48-1.17-.18l-4.78,4.61,1.27-.19-4-3.84c-.34-.33-1.73.22-1.38.55Z" transform="translate(-36.62 -278.97)"/><path class="cls-7" d="M172,439.17l4,3.85c.28.27,1,0,1.27-.19l4.78-4.61c.6-.58-.85-.48-1.16-.18L176,442.65l1.28-.19-4-3.84c-.34-.33-1.73.22-1.38.55Z" transform="translate(-36.62 -278.97)"/><path class="cls-7" d="M163.81,424.41l4,3.85c.28.27,1,0,1.27-.19l4.78-4.61c.6-.58-.86-.48-1.17-.18l-4.78,4.61,1.27-.19-4-3.84c-.34-.33-1.73.22-1.38.55Z" transform="translate(-36.62 -278.97)"/><path class="cls-7" d="M146.9,424.41l4,3.85c.28.27,1,0,1.27-.19l4.78-4.61c.6-.58-.86-.48-1.17-.18L151,427.89l1.27-.19-4-3.84c-.34-.33-1.73.22-1.38.55Z" transform="translate(-36.62 -278.97)"/><path class="cls-7" d="M130,424.41l4,3.85c.28.27,1,0,1.27-.19l4.78-4.61c.6-.58-.86-.48-1.17-.18l-4.78,4.61,1.27-.19-4-3.84c-.34-.33-1.73.22-1.38.55Z" transform="translate(-36.62 -278.97)"/><path class="cls-7" d="M113.08,424.41l4,3.85c.28.27,1,0,1.27-.19l4.78-4.61c.6-.58-.86-.48-1.17-.18l-4.78,4.61,1.27-.19-4-3.84c-.34-.33-1.73.22-1.38.55Z" transform="translate(-36.62 -278.97)"/><path class="cls-7" d="M96.17,424.41l4,3.85c.28.27,1,0,1.27-.19l4.78-4.61c.6-.58-.86-.48-1.17-.18l-4.78,4.61,1.27-.19-4-3.84c-.34-.33-1.73.22-1.38.55Z" transform="translate(-36.62 -278.97)"/><path class="cls-7" d="M79.26,424.41l4,3.85c.28.27,1,0,1.27-.19l4.78-4.61c.6-.58-.86-.48-1.17-.18l-4.78,4.61,1.27-.19-4-3.84c-.34-.33-1.73.22-1.38.55Z" transform="translate(-36.62 -278.97)"/><path class="cls-7" d="M62.35,424.41l4,3.85c.28.27,1,0,1.27-.19l4.78-4.61c.6-.58-.86-.48-1.17-.18l-4.78,4.61,1.27-.19-4-3.84c-.35-.33-1.73.22-1.38.55Z" transform="translate(-36.62 -278.97)"/><path class="cls-7" d="M45.44,424.41l4,3.85c.28.27,1,0,1.27-.19l4.78-4.61c.6-.58-.86-.48-1.17-.18l-4.78,4.61,1.27-.19-4-3.84c-.35-.33-1.73.22-1.38.55Z" transform="translate(-36.62 -278.97)"/><path class="cls-7" d="M180.72,424.41l4,3.85c.28.27,1,0,1.27-.19l4.78-4.61c.6-.58-.86-.48-1.17-.18l-4.78,4.61,1.27-.19-4-3.84c-.34-.33-1.73.22-1.38.55Z" transform="translate(-36.62 -278.97)"/><path class="cls-7" d="M155,410.88l4,3.85c.28.27,1,0,1.27-.19l4.78-4.61c.6-.58-.85-.48-1.16-.18l-4.79,4.61,1.28-.19-4-3.84c-.34-.33-1.73.22-1.38.55Z" transform="translate(-36.62 -278.97)"/><path class="cls-7" d="M138.13,410.88l4,3.85c.28.27,1,0,1.27-.19l4.78-4.61c.6-.58-.85-.48-1.16-.18l-4.79,4.61,1.28-.19-4-3.84c-.34-.33-1.73.22-1.38.55Z" transform="translate(-36.62 -278.97)"/><path class="cls-7" d="M121.22,410.88l4,3.85c.28.27,1,0,1.27-.19l4.78-4.61c.6-.58-.85-.48-1.16-.18l-4.79,4.61,1.28-.19-4-3.84c-.34-.33-1.73.22-1.38.55Z" transform="translate(-36.62 -278.97)"/><path class="cls-7" d="M104.31,410.88l4,3.85c.28.27,1,0,1.27-.19l4.78-4.61c.6-.58-.85-.48-1.16-.18l-4.79,4.61,1.28-.19-4-3.84c-.34-.33-1.73.22-1.38.55Z" transform="translate(-36.62 -278.97)"/><path class="cls-7" d="M87.4,410.88l4,3.85c.28.27,1,0,1.27-.19l4.78-4.61c.6-.58-.85-.48-1.16-.18l-4.79,4.61,1.27-.19-4-3.84c-.34-.33-1.73.22-1.38.55Z" transform="translate(-36.62 -278.97)"/><path class="cls-7" d="M70.49,410.88l4,3.85c.28.27,1,0,1.27-.19l4.78-4.61c.6-.58-.86-.48-1.16-.18l-4.79,4.61,1.27-.19-4-3.84c-.34-.33-1.73.22-1.38.55Z" transform="translate(-36.62 -278.97)"/><path class="cls-7" d="M53.58,410.88l4,3.85c.28.27,1,0,1.27-.19l4.78-4.61c.6-.58-.86-.48-1.17-.18l-4.78,4.61,1.27-.19-4-3.84c-.34-.33-1.73.22-1.38.55Z" transform="translate(-36.62 -278.97)"/><path class="cls-7" d="M36.67,410.88l4,3.85c.28.27,1,0,1.27-.19l4.78-4.61c.6-.58-.86-.48-1.17-.18l-4.78,4.61,1.27-.19-4-3.84c-.34-.33-1.73.22-1.38.55Z" transform="translate(-36.62 -278.97)"/><path class="cls-7" d="M172,410.88l4,3.85c.28.27,1,0,1.27-.19l4.78-4.61c.6-.58-.85-.48-1.16-.18L176,414.36l1.28-.19-4-3.84c-.34-.33-1.73.22-1.38.55Z" transform="translate(-36.62 -278.97)"/><path class="cls-7" d="M163.18,396.12l4,3.84c.28.28,1,.05,1.27-.18l4.79-4.62c.6-.58-.86-.47-1.17-.18l-4.78,4.62,1.27-.19-4-3.84c-.34-.33-1.72.21-1.38.55Z" transform="translate(-36.62 -278.97)"/><path class="cls-7" d="M146.27,396.12l4,3.84c.28.28,1,.05,1.27-.18l4.79-4.62c.6-.58-.86-.47-1.17-.18l-4.78,4.62,1.27-.19-4-3.84c-.34-.33-1.72.21-1.38.55Z" transform="translate(-36.62 -278.97)"/><path class="cls-7" d="M129.36,396.12l4,3.84c.28.28,1,.05,1.27-.18l4.78-4.62c.61-.58-.85-.47-1.16-.18l-4.79,4.62,1.28-.19-4-3.84c-.34-.33-1.72.21-1.38.55Z" transform="translate(-36.62 -278.97)"/><path class="cls-7" d="M112.45,396.12l4,3.84c.28.28,1,.05,1.27-.18l4.78-4.62c.61-.58-.85-.47-1.16-.18l-4.79,4.62,1.28-.19-4-3.84c-.34-.33-1.72.21-1.38.55Z" transform="translate(-36.62 -278.97)"/><path class="cls-7" d="M95.54,396.12l4,3.84c.28.28,1,.05,1.27-.18l4.78-4.62c.61-.58-.85-.47-1.16-.18l-4.79,4.62,1.28-.19-4-3.84c-.34-.33-1.72.21-1.38.55Z" transform="translate(-36.62 -278.97)"/><path class="cls-7" d="M78.63,396.12l4,3.84c.28.28,1,.05,1.27-.18l4.78-4.62c.61-.58-.85-.47-1.16-.18l-4.79,4.62,1.28-.19-4-3.84c-.34-.33-1.72.21-1.38.55Z" transform="translate(-36.62 -278.97)"/><path class="cls-7" d="M61.72,396.12l4,3.84c.28.28,1,.05,1.27-.18l4.78-4.62c.6-.58-.85-.47-1.16-.18l-4.79,4.62,1.28-.19-4-3.84c-.34-.33-1.72.21-1.38.55Z" transform="translate(-36.62 -278.97)"/><path class="cls-7" d="M44.81,396.12l4,3.84c.28.28,1,.05,1.27-.18l4.78-4.62c.6-.58-.85-.47-1.16-.18L48.9,399.6l1.28-.19-4-3.84c-.34-.33-1.73.21-1.38.55Z" transform="translate(-36.62 -278.97)"/><path class="cls-7" d="M180.09,396.12l4,3.84c.28.28,1,.05,1.27-.18l4.79-4.62c.6-.58-.86-.47-1.17-.18l-4.78,4.62,1.27-.19-4-3.84c-.34-.33-1.72.21-1.38.55Z" transform="translate(-36.62 -278.97)"/></g><path class="cls-8" d="M106.69,292.13S89.86,276.8,78.36,297.3s3.5,53-8,67c0,0,12,13,16-7s5.5-52.5,5.5-52.5Z" transform="translate(-36.62 -278.97)"/><path class="cls-8" d="M103.79,294.3s-.25-.31-.76-.83a25.57,25.57,0,0,0-2.38-2.07,17.55,17.55,0,0,0-4.2-2.43,11.33,11.33,0,0,0-6-.73,12.54,12.54,0,0,0-6.3,3.28,28.2,28.2,0,0,0-5.06,6.39c-.35.64-.74,1.29-1.06,1.94s-.62,1.28-.89,2A40.94,40.94,0,0,0,75.66,306,52.5,52.5,0,0,0,74,315c-.32,3.07-.45,6.17-.49,9.23s0,6.09,0,9a121.49,121.49,0,0,1-.58,16.1,35.17,35.17,0,0,1-1.31,6.34,22.21,22.21,0,0,1-2,4.6c-.17.3-.32.59-.49.85s-.35.48-.5.7a8.3,8.3,0,0,1-.85,1.06l-.75.84.67-.9a8.94,8.94,0,0,0,.73-1.13c.13-.23.28-.47.43-.74s.27-.56.42-.86a22.42,22.42,0,0,0,1.57-4.61,41,41,0,0,0,.89-6.26c.17-2.32.21-4.85.19-7.52s-.15-5.5-.23-8.43-.21-6-.18-9.07.12-6.26.44-9.42a53.33,53.33,0,0,1,1.76-9.33,36.89,36.89,0,0,1,1.6-4.42c.3-.71.69-1.41,1-2.1s.75-1.29,1.12-1.93a27.52,27.52,0,0,1,5.61-6.65,13.35,13.35,0,0,1,7.12-3.28,11.64,11.64,0,0,1,6.47,1.18,18.11,18.11,0,0,1,4.14,2.81,20,20,0,0,1,2.22,2.3C103.57,294,103.79,294.3,103.79,294.3Z" transform="translate(-36.62 -278.97)"/><path class="cls-4" d="M92.36,328.4c-2.16-6.71-7.28-5.15-7.76-5s-5.79.84-4.87,7.83,5,10.83,8.81,9.71C92.48,340.33,94.53,335.14,92.36,328.4Z" transform="translate(-36.62 -278.97)"/><path class="cls-4" d="M138.44,329.68c2.16-6.7,7.27-5.15,7.75-5s5.79.85,4.88,7.83-5,10.83-8.82,9.71C138.32,341.61,136.26,336.42,138.44,329.68Z" transform="translate(-36.62 -278.97)"/><path class="cls-3" d="M142.9,319.14c-2.68-29.39-25-27.75-27.13-27.52-2.11-.23-24.45-1.87-27.13,27.52C86,348.7,99.12,368,115.77,366.94,132.42,368,145.59,348.7,142.9,319.14Z" transform="translate(-36.62 -278.97)"/><path class="cls-9" d="M119,329.17c.16.47.28.95.42,1.43s.24.95.36,1.43c.21,1,.4,1.92.57,2.89s.33,1.93.44,2.9.23,1.95.32,2.93l0,.25-.16.13c-.59.51-1.19,1-1.8,1.48s-1.22,1-1.88,1.4c.48-.63,1-1.2,1.5-1.81s1-1.15,1.57-1.71l-.13.38c-.2-1-.38-1.92-.52-2.89s-.27-1.94-.39-2.92-.2-1.95-.26-2.93c0-.49,0-1,0-1.48S118.94,329.67,119,329.17Z" transform="translate(-36.62 -278.97)"/><path class="cls-10" d="M102.83,348.33l26.52-.28S118.75,358.49,102.83,348.33Z" transform="translate(-36.62 -278.97)"/><path class="cls-9" d="M109.63,353.66s.29.06.77.19a19.12,19.12,0,0,0,2,.51c.42.08.87.15,1.33.25a11.52,11.52,0,0,0,1.49.16,8.46,8.46,0,0,0,1.6.07c.54,0,1.09,0,1.64-.06l1.62-.25a9.4,9.4,0,0,0,1.54-.41,7.54,7.54,0,0,0,1.41-.48l1.24-.55a6.06,6.06,0,0,0,1-.54l.77-.45c.44-.26.7-.39.7-.39s-.19.21-.56.56l-.67.62a4.48,4.48,0,0,1-.93.75c-.37.24-.77.5-1.21.75a6,6,0,0,1-1.45.66l-.79.3-.41.15-.43.08-1.74.31c-.59,0-1.19,0-1.77,0a7.91,7.91,0,0,1-1.7-.18,8.34,8.34,0,0,1-1.55-.32c-.49-.15-.94-.31-1.36-.46a5.16,5.16,0,0,1-1.08-.48l-.8-.43Z" transform="translate(-36.62 -278.97)"/><path class="cls-11" d="M101.87,329.61c0,2.22.82,4,1.84,4s1.83-1.79,1.83-4-.82-4-1.83-4S101.87,327.4,101.87,329.61Z" transform="translate(-36.62 -278.97)"/><path class="cls-11" d="M127.08,329.61c0,2.22.83,4,1.84,4s1.83-1.79,1.83-4-.82-4-1.83-4S127.08,327.4,127.08,329.61Z" transform="translate(-36.62 -278.97)"/><path class="cls-11" d="M97.37,323.05A6.64,6.64,0,0,1,98.68,321a7.8,7.8,0,0,1,.87-.84,6.94,6.94,0,0,1,1.12-.79,8.07,8.07,0,0,1,1.36-.63,7.32,7.32,0,0,1,1.56-.32l.81,0c.27,0,.54.06.8.1a5.42,5.42,0,0,1,1.48.44,6.54,6.54,0,0,1,1.22.72,4.59,4.59,0,0,1,.91.83,3.7,3.7,0,0,1,.64.79c.17.25.3.49.4.67a6.42,6.42,0,0,1,.3.6s-.23-.1-.6-.3c-.19-.1-.41-.22-.65-.37a7,7,0,0,0-.82-.41,7.71,7.71,0,0,0-1-.42c-.35-.09-.69-.27-1.06-.33a7.17,7.17,0,0,0-1.13-.17l-.57,0-.58,0a7.86,7.86,0,0,0-1.17.17c-.37.13-.77.19-1.13.35a10.39,10.39,0,0,0-1.07.44c-.36.13-.67.31-1,.45l-.83.43-.65.36Z" transform="translate(-36.62 -278.97)"/><path class="cls-11" d="M122.76,323.05a6.64,6.64,0,0,1,1.31-2.07,7.8,7.8,0,0,1,.87-.84,6.94,6.94,0,0,1,1.12-.79,8.07,8.07,0,0,1,1.36-.63,7.32,7.32,0,0,1,1.56-.32l.81,0c.27,0,.54.06.8.1a5.59,5.59,0,0,1,1.49.44,6.79,6.79,0,0,1,1.21.72,4.59,4.59,0,0,1,.91.83,3.7,3.7,0,0,1,.64.79c.17.25.3.49.4.67a6.42,6.42,0,0,1,.3.6s-.23-.1-.6-.3c-.18-.1-.41-.22-.64-.37a8,8,0,0,0-.83-.41,7.71,7.71,0,0,0-1-.42c-.35-.09-.69-.27-1.06-.33a7.22,7.22,0,0,0-1.12-.17l-.58,0-.58,0a8.05,8.05,0,0,0-1.17.17c-.37.13-.77.19-1.13.35a11.4,11.4,0,0,0-1.07.44c-.35.13-.67.31-1,.45l-.83.43-.65.36Z" transform="translate(-36.62 -278.97)"/><path class="cls-8" d="M102.36,299.8s11.5-12,18.5-2.5,19,45,39,47.5c0,0,3.83-41.33-14.17-57.33C126.84,270.71,101.86,280.8,102.36,299.8Z" transform="translate(-36.62 -278.97)"/><path class="cls-8" d="M151.36,345.8l-.9-.07a15.87,15.87,0,0,1-2.52-.52,20.38,20.38,0,0,1-7.89-4.79,35.6,35.6,0,0,1-4.14-4.62,59.35,59.35,0,0,1-3.81-5.73c-1.19-2.06-2.34-4.23-3.42-6.48s-2.08-4.55-3.06-6.87-1.87-4.65-2.78-6.94-1.77-4.53-2.66-6.67a32.87,32.87,0,0,0-2.94-5.78,6.87,6.87,0,0,0-4.17-3,8.37,8.37,0,0,0-4.58.58,19.35,19.35,0,0,0-3.4,1.78,23.17,23.17,0,0,0-2.73,2.07s.18-.25.56-.71a21.1,21.1,0,0,1,1.78-1.85,16.4,16.4,0,0,1,3.28-2.38,9.29,9.29,0,0,1,5.34-1.26,7.31,7.31,0,0,1,3.15,1A10.7,10.7,0,0,1,119.1,296a29.5,29.5,0,0,1,3.49,6.07c1,2.15,2,4.39,2.88,6.68s1.87,4.58,2.82,6.89,1.91,4.58,2.92,6.8,2,4.39,3.1,6.42,2.17,4,3.33,5.73a42.27,42.27,0,0,0,3.57,4.71,26.15,26.15,0,0,0,3.63,3.4,18.6,18.6,0,0,0,3.3,2,19.88,19.88,0,0,0,2.35.89Z" transform="translate(-36.62 -278.97)"/><path class="cls-8" d="M102.36,299.8s3-3.85,1.43-5.5c-3.56-3.65-16.21-6.09-17.93,8-2.5,20.5,8,53.5-9.5,71,0,0,5.5,6.5,11.5-2.5,0,0-2,6-5.5,6.5,0,0,8.5,1.5,10.5-10.5S88.86,300.8,102.36,299.8Z" transform="translate(-36.62 -278.97)"/></svg>