<svg id="OBJECTS" xmlns="http://www.w3.org/2000/svg" viewBox="0 0 152.74 168.17"><defs><style>.cls-1{fill:#ffac9d;}.cls-2{fill:#cc887f;}.cls-3{fill:#6f96bd;}.cls-4{fill:#85b7e0;}.cls-5{fill:#fff;}.cls-6{fill:#352c38;}.cls-7{fill:#965450;}.cls-8{fill:#76413b;}</style></defs><title>person1</title><path class="cls-1" d="M184.91,202.78c-5.95-16-42.32-23.61-48.69-28.24-8.17-5.95-5.57-25.64-5.57-25.64l-13.38.35-13.38-.35s2.6,19.69-5.57,25.64C92,179.17,55.58,186.8,49.63,202.78a175.11,175.11,0,0,0-8.17,30.1H193.08A175.11,175.11,0,0,0,184.91,202.78Z" transform="translate(-41.46 -64.71)"/><path class="cls-2" d="M101.41,170.87c6.27-.64,12.56-1.91,18-5a61.27,61.27,0,0,0,10.88-7.8,60,60,0,0,1,.35-9.21l-13.38.35-13.38-.35S105.74,162.91,101.41,170.87Z" transform="translate(-41.46 -64.71)"/><path class="cls-3" d="M186,202.56c-4.63-12.44-27.56-19.86-40.7-24.74-5.72,6.59-15.86,11-27.43,11s-21.72-4.39-27.43-11c-13.14,4.88-36.08,12.3-40.71,24.74a175.77,175.77,0,0,0-8.23,30.32H194.2A176.4,176.4,0,0,0,186,202.56Z" transform="translate(-41.46 -64.71)"/><path class="cls-4" d="M117.78,193.9c14.68,0,27.27-5.84,32.67-14.18l-5.19-1.9c-5.72,6.59-15.86,11-27.43,11s-21.72-4.39-27.43-11l-5.27,1.93C90.54,188.07,103.12,193.9,117.78,193.9Z" transform="translate(-41.46 -64.71)"/><path class="cls-2" d="M94.81,118.19c-2.17-6.7-7.28-5.15-7.76-5s-5.79.85-4.88,7.83,5,10.83,8.82,9.71C94.92,130.12,97,124.93,94.81,118.19Z" transform="translate(-41.46 -64.71)"/><path class="cls-2" d="M138.06,118.19c2.16-6.7,7.28-5.15,7.76-5s5.79.85,4.88,7.83-5,10.83-8.82,9.71C138,130.12,135.89,124.93,138.06,118.19Z" transform="translate(-41.46 -64.71)"/><path class="cls-1" d="M143.53,107.65c-2.68-29.39-25-27.75-27.13-27.52-2.11-.23-24.45-1.87-27.13,27.52-2.69,29.56,10.48,48.87,27.13,47.8C133.05,156.52,146.22,137.21,143.53,107.65Z" transform="translate(-41.46 -64.71)"/><path class="cls-2" d="M119.59,117.68c.16.47.28.95.41,1.43s.25,1,.36,1.43c.22,1,.41,1.92.58,2.89s.32,1.93.44,2.9.23,2,.32,2.93l0,.25-.16.14q-.89.75-1.8,1.47c-.62.47-1.23,1-1.88,1.4.47-.63,1-1.2,1.5-1.81s1-1.15,1.57-1.71l-.14.38c-.19-1-.37-1.92-.51-2.89s-.28-1.94-.39-2.92-.2-1.95-.26-2.93c0-.49-.05-1-.05-1.48S119.57,118.18,119.59,117.68Z" transform="translate(-41.46 -64.71)"/><path class="cls-5" d="M103.46,136.84l26.52-.28S119.37,147,103.46,136.84Z" transform="translate(-41.46 -64.71)"/><path class="cls-2" d="M110.26,142.17s.29.06.77.19a19.12,19.12,0,0,0,2,.51c.42.08.86.15,1.33.25a11.34,11.34,0,0,0,1.49.16,8.46,8.46,0,0,0,1.6.07c.54,0,1.09,0,1.64-.06l1.62-.25a9.4,9.4,0,0,0,1.54-.41,7.54,7.54,0,0,0,1.41-.48l1.24-.55a6.06,6.06,0,0,0,1-.54l.77-.45c.44-.26.7-.39.7-.39l-.56.56-.67.62a4.86,4.86,0,0,1-.93.76c-.37.23-.77.49-1.21.74a6,6,0,0,1-1.45.66l-.79.3-.41.15-.43.08-1.74.31c-.59,0-1.19,0-1.77,0a7.91,7.91,0,0,1-1.7-.18,8.62,8.62,0,0,1-1.56-.32c-.48-.15-.94-.31-1.35-.46a5.16,5.16,0,0,1-1.08-.48l-.8-.43Z" transform="translate(-41.46 -64.71)"/><path class="cls-6" d="M102.5,118.12c0,2.22.82,4,1.83,4s1.84-1.79,1.84-4-.82-4-1.84-4S102.5,115.91,102.5,118.12Z" transform="translate(-41.46 -64.71)"/><path class="cls-6" d="M127.71,118.12c0,2.22.83,4,1.84,4s1.83-1.79,1.83-4-.82-4-1.83-4S127.71,115.91,127.71,118.12Z" transform="translate(-41.46 -64.71)"/><path class="cls-6" d="M98,111.57a6.39,6.39,0,0,1,1.31-2.08,8.62,8.62,0,0,1,.86-.84,7.52,7.52,0,0,1,1.13-.79,7.72,7.72,0,0,1,1.36-.63,8,8,0,0,1,1.56-.32c.27,0,.54,0,.81,0s.54.06.8.1a5.52,5.52,0,0,1,1.48.44,6.54,6.54,0,0,1,1.22.72,5.26,5.26,0,0,1,.91.83,4,4,0,0,1,.64.79c.17.25.29.49.4.67.2.38.3.6.3.6s-.23-.1-.6-.3c-.19-.1-.41-.22-.65-.37a8.93,8.93,0,0,0-.82-.41,7.49,7.49,0,0,0-1-.41,10,10,0,0,0-1.06-.34,7.17,7.17,0,0,0-1.13-.17l-.57,0-.58.05a7.86,7.86,0,0,0-1.17.17c-.37.13-.77.19-1.13.35A10.58,10.58,0,0,0,101,110c-.35.13-.66.31-1,.45l-.83.44-.65.35Z" transform="translate(-41.46 -64.71)"/><path class="cls-6" d="M123.39,111.57a6.61,6.61,0,0,1,1.31-2.08,7.8,7.8,0,0,1,.87-.84,6.94,6.94,0,0,1,1.12-.79,6.69,6.69,0,0,1,2.92-1c.27,0,.54,0,.81,0s.54.06.8.1a5.59,5.59,0,0,1,1.49.44,6.79,6.79,0,0,1,1.21.72,4.92,4.92,0,0,1,.91.83,3.7,3.7,0,0,1,.64.79c.17.25.3.49.4.67a6.42,6.42,0,0,1,.3.6s-.23-.1-.6-.3c-.19-.1-.41-.22-.64-.37s-.54-.26-.83-.41a6.45,6.45,0,0,0-1-.41,9.35,9.35,0,0,0-1.06-.34A7.17,7.17,0,0,0,131,109l-.57,0-.58.05a7.86,7.86,0,0,0-1.17.17c-.37.13-.77.19-1.13.35a11.4,11.4,0,0,0-1.07.44c-.35.13-.67.31-1,.45l-.83.44-.65.35Z" transform="translate(-41.46 -64.71)"/><path class="cls-7" d="M89.36,122.13s-7-29-3-37.33S95,79.13,95,79.13s6.33-17.33,19.66-14,21,9.34,28,3.34c0,0,0,5.33-4,7.66,0,0,8.34,0,11.67-8,0,0,5,17.11-6,23.11,0,0,.82,21.36,0,29.23l-3-.34s-1.67-11.33-2.67-25.66c0,0-17.33,9.33-38.33-7,0,0,3,11-9,18l1,15.33Z" transform="translate(-41.46 -64.71)"/><path class="cls-8" d="M132.05,96.57a49.79,49.79,0,0,1-14-3c-9-3.47-16.76-13.73-17.38-23.68A30.91,30.91,0,0,0,95,79.13s-4.67-2.66-8.67,5.67,3,37.33,3,37.33l3-1.33-1-15.33c12-7,9-18,9-18C113.46,97.65,125.12,97.86,132.05,96.57Z" transform="translate(-41.46 -64.71)"/></svg>